<?xml version="1.0" encoding="UTF-8" standalone="no"?>
<svg
   t="1779870231807"
   class="icon"
   viewBox="0 0 1025 1024"
   version="1.1"
   p-id="9722"
   width="128.125"
   height="128"
   id="svg2"
   sodipodi:docname="arrow-up.svg"
   inkscape:version="1.4.3 (0d15f75, 2025-12-25)"
   xmlns:inkscape="http://www.inkscape.org/namespaces/inkscape"
   xmlns:sodipodi="http://sodipodi.sourceforge.net/DTD/sodipodi-0.dtd"
   xmlns="http://www.w3.org/2000/svg"
   xmlns:svg="http://www.w3.org/2000/svg">
  <defs
     id="defs2" />
  <sodipodi:namedview
     id="namedview2"
     pagecolor="#ffffff"
     bordercolor="#000000"
     borderopacity="0.25"
     inkscape:showpageshadow="2"
     inkscape:pageopacity="0.0"
     inkscape:pagecheckerboard="0"
     inkscape:deskcolor="#d1d1d1"
     inkscape:zoom="8.8828125"
     inkscape:cx="64.056288"
     inkscape:cy="64"
     inkscape:window-width="2560"
     inkscape:window-height="1351"
     inkscape:window-x="-9"
     inkscape:window-y="-9"
     inkscape:window-maximized="1"
     inkscape:current-layer="svg2" />
  <path
     d="m 130.35935,689.23664 c -0.0932,-5.39816 1.87292,-10.82971 5.92022,-15.01939 l 331.4497,-343.04581 c 21.5522,-22.30542 57.2326,-22.91976 79.53977,-1.36844 0.10811,0.10459 0.21533,0.21006 0.32168,0.31728 l 340.93735,343.80869 c 8.2027,8.27214 8.14733,21.62779 -0.12568,29.83049 -8.27214,8.20271 -21.62867,8.14646 -29.83137,-0.12568 L 517.82702,360.0202 c -2.68501,-2.53121 -6.18828,-3.88822 -9.8849,-3.82494 -3.75551,0.065 -7.26141,1.58816 -9.87172,4.289 L 166.6207,703.53095 c -8.09548,8.3776 -21.4485,8.60699 -29.82698,0.51327 -4.1888,-4.0473 -6.34121,-9.4103 -6.43437,-14.80758 z"
     fill="#272536"
     p-id="9723"
     id="path1"
     style="stroke-width:0.85839" />
  <path
     d="M 512.5,512"
     p-id="9724"
     id="path2" />
  <path
     id="path3"
     style="stroke-width:0.838973"
     d="m 505.92969,310.91406 c -16.15694,0.56651 -32.01821,7.65444 -43.07614,19.47467 -13.24048,13.64599 -26.41594,27.33737 -39.65319,41.01969 -94.83937,98.16779 -189.69037,196.32467 -284.52247,294.49927 -6.82123,7.38338 -9.13672,18.57702 -5.81743,28.06501 2.77329,8.22362 9.52378,14.99998 17.78759,17.69337 7.78011,2.6558 16.6844,1.62844 23.68265,-2.67211 2.94436,-1.71236 5.33253,-4.16771 7.65252,-6.62242 25.17901,-26.00605 50.3106,-52.06595 75.47378,-78.09364 83.58751,-86.51231 167.17297,-173.02659 250.76175,-259.53767 112.54746,113.48623 225.08645,226.98111 337.64063,340.4605 7.24737,7.07478 18.4875,9.66654 28.10835,6.50809 8.38563,-2.64155 15.35368,-9.40884 18.14058,-17.75984 2.83036,-8.053 1.65927,-17.34399 -2.98457,-24.4919 -1.96487,-3.19057 -4.84319,-5.63301 -7.41006,-8.31198 C 843.34055,622.39999 804.9203,583.70156 766.52873,544.97471 694.84469,472.69752 623.17333,400.40732 551.48137,328.13826 c -11.61535,-11.15703 -27.69813,-17.49111 -43.80246,-17.2574 -0.58314,0.003 -1.16615,0.0232 -1.74922,0.0332 z" />
</svg>
