<?xml version="1.0" encoding="UTF-8" standalone="no"?>
<svg
   t="1779870231807"
   class="icon"
   viewBox="0 0 1025 1024"
   version="1.1"
   p-id="9722"
   width="128.125"
   height="128"
   id="svg2"
   sodipodi:docname="arrow-up.svg"
   inkscape:version="1.4.3 (0d15f75, 2025-12-25)"
   xmlns:inkscape="http://www.inkscape.org/namespaces/inkscape"
   xmlns:sodipodi="http://sodipodi.sourceforge.net/DTD/sodipodi-0.dtd"
   xmlns="http://www.w3.org/2000/svg"
   xmlns:svg="http://www.w3.org/2000/svg">
  <defs
     id="defs2" />
  <sodipodi:namedview
     id="namedview2"
     pagecolor="#ffffff"
     bordercolor="#000000"
     borderopacity="0.25"
     inkscape:showpageshadow="2"
     inkscape:pageopacity="0.0"
     inkscape:pagecheckerboard="0"
     inkscape:deskcolor="#d1d1d1"
     inkscape:zoom="8.8828125"
     inkscape:cx="64.056288"
     inkscape:cy="64"
     inkscape:window-width="2560"
     inkscape:window-height="1351"
     inkscape:window-x="-9"
     inkscape:window-y="-9"
     inkscape:window-maximized="1"
     inkscape:current-layer="svg2" />
  <path
     d="m 130.35935,689.23664 c -0.0932,-5.39816 1.87292,-10.82971 5.92022,-15.01939 l 331.4497,-343.04581 c 21.5522,-22.30542 57.2326,-22.91976 79.53977,-1.36844 0.10811,0.10459 0.21533,0.21006 0.32168,0.31728 l 340.93735,343.80869 c 8.2027,8.27214 8.14733,21.62779 -0.12568,29.83049 -8.27214,8.20271 -21.62867,8.14646 -29.83137,-0.12568 L 517.82702,360.0202 c -2.68501,-2.53121 -6.18828,-3.88822 -9.8849,-3.82494 -3.75551,0.065 -7.26141,1.58816 -9.87172,4.289 L 166.6207,703.53095 c -8.09548,8.3776 -21.4485,8.60699 -29.82698,0.51327 -4.1888,-4.0473 -6.34121,-9.4103 -6.43437,-14.80758 z"
     fill="#272536"
     p-id="9723"
     id="path1"
     style="stroke-width:0.85839" />
  <path
     d="M 512.5,512"
     p-id="9724"
     id="path2" />
  <path
     id="path3"
     style="stroke-width:0.838973"
     d="m 507.73242,318.88086 c -14.83655,0.082 -29.52794,6.55396 -39.55023,17.50521 -31.04887,32.08294 -62.04621,64.21574 -93.07681,96.31635 -76.88198,79.57549 -153.76619,159.14912 -230.63879,238.73349 -5.29231,5.83914 -6.63882,14.91366 -3.20256,22.01905 2.68063,5.72584 8.13476,10.08685 14.36204,11.28228 6.54744,1.32073 13.72712,-0.78668 18.36907,-5.62924 18.51548,-19.09927 36.98502,-38.24481 55.47175,-57.3726 C 322.35751,545.58996 415.25081,449.44712 508.14453,353.30469 622.60271,468.72106 737.05751,584.141 851.524,699.549 c 5.83181,5.5976 15.18292,7.11906 22.46382,3.57432 5.73906,-2.68643 10.09081,-8.17043 11.27188,-14.41174 1.30787,-6.56998 -0.84942,-13.75577 -5.7144,-18.39558 -1.1706,-1.20492 -2.38676,-2.36468 -3.55116,-3.57577 -0.26309,-0.27085 -0.84482,-0.85325 -1.22991,-1.24338 C 800.55074,590.61408 726.29246,515.77329 652.06058,440.90753 616.62602,405.18758 581.2054,369.45327 545.76214,333.74229 c -10.1151,-9.61922 -24.07467,-15.0667 -38.02972,-14.86143 z" />
</svg>
