<?xml version="1.0" encoding="UTF-8" standalone="no"?>
<svg
   t="1780228385148"
   class="icon"
   viewBox="0 0 1024 1024"
   version="1.1"
   p-id="123331"
   width="128"
   height="128"
   id="svg1"
   sodipodi:docname="category-log-line.svg"
   inkscape:version="1.4.3 (0d15f75, 2025-12-25)"
   xmlns:inkscape="http://www.inkscape.org/namespaces/inkscape"
   xmlns:sodipodi="http://sodipodi.sourceforge.net/DTD/sodipodi-0.dtd"
   xmlns="http://www.w3.org/2000/svg"
   xmlns:svg="http://www.w3.org/2000/svg">
  <sodipodi:namedview
     id="namedview1"
     pagecolor="#ffffff"
     bordercolor="#000000"
     borderopacity="0.25"
     inkscape:showpageshadow="2"
     inkscape:pageopacity="0.0"
     inkscape:pagecheckerboard="0"
     inkscape:deskcolor="#d1d1d1"
     inkscape:zoom="8.8828125"
     inkscape:cx="63.943712"
     inkscape:cy="64"
     inkscape:window-width="2560"
     inkscape:window-height="1351"
     inkscape:window-x="-9"
     inkscape:window-y="-9"
     inkscape:window-maximized="1"
     inkscape:current-layer="svg1" />
  <defs
     id="defs1" />
  <namedview
     id="namedview1"
     pagecolor="#ffffff"
     bordercolor="#000000"
     borderopacity="0.25"
     inkscape:showpageshadow="2"
     inkscape:pageopacity="0.0"
     inkscape:pagecheckerboard="0"
     inkscape:deskcolor="#111111"
     inkscape:zoom="8.8828125"
     inkscape:cx="63.943712"
     inkscape:cy="64"
     inkscape:window-width="2560"
     inkscape:window-height="1351"
     inkscape:window-x="-9"
     inkscape:window-y="-9"
     inkscape:window-maximized="1"
     inkscape:current-layer="svg1" />
  <path
     d="M 754.41633,899.87537 H 269.58167 c -53.5664,0 -96.95916,-43.43074 -96.95916,-96.95917 V 318.08076 c 0,-53.56642 43.39276,-96.99715 96.95916,-96.99715 h 72.70969 v -48.4618 h 65.315 c 20.98407,-28.86602 59.64635,-48.49818 104.39184,-48.49818 44.74546,0 83.40937,19.63216 104.39263,48.49818 h 65.27783 v 48.4618 h 72.74685 c 53.52924,0 96.95998,43.43073 96.95998,96.99715 V 802.9162 c 8e-4,53.52843 -43.42994,96.95917 -96.95916,96.95917 z M 633.20846,221.08443 h -53.86701 c 0,-26.76503 -30.14195,-48.46182 -67.34245,-48.46182 -37.1997,0 -67.34245,21.69679 -67.34245,48.46182 h -53.86539 v 96.99713 h 242.4173 z m 169.66884,96.99633 c 0,-26.80219 -21.69677,-48.49817 -48.46097,-48.49817 h -72.74686 v 96.95918 H 342.29298 V 269.58259 H 269.5833 c -26.76422,0 -48.49898,21.69678 -48.49898,48.49817 V 802.9162 c 0,26.7634 21.73557,48.46019 48.49898,48.46019 h 484.83463 c 26.76422,0 48.461,-21.69679 48.461,-48.46019 V 318.08076 h -8.1e-4 z M 681.66947,754.41641 H 342.29298 c -13.36312,0 -24.21233,-10.84839 -24.21233,-24.24868 0,-13.4011 10.84841,-24.24949 24.21233,-24.24949 h 339.37649 c 13.40027,0 24.24868,10.84839 24.24868,24.24949 -8e-4,13.40029 -10.84921,24.24868 -24.24868,24.24868 z m 0,-121.20866 H 342.29298 c -13.36312,0 -24.21233,-10.84838 -24.21233,-24.24868 0,-13.36311 10.84841,-24.24868 24.21233,-24.24868 h 339.37649 c 13.40027,0 24.24868,10.88557 24.24868,24.24868 -8e-4,13.4011 -10.84921,24.24868 -24.24868,24.24868 z m 0,-121.20784 H 342.29298 c -13.36312,0 -24.21233,-10.84841 -24.21233,-24.2495 0,-13.4011 10.84841,-24.24949 24.21233,-24.24949 h 339.37649 c 13.40027,0 24.24868,10.84839 24.24868,24.24949 0,13.40109 -10.84921,24.2495 -24.24868,24.2495 z"
     fill="#111111"
     p-id="123332"
     id="path1"
     style="stroke-width:0.808074" />
</svg>
