<?xml version="1.0" encoding="UTF-8" standalone="no"?>
<svg
   t="1780224137270"
   class="icon"
   viewBox="0 0 1024 1024"
   version="1.1"
   p-id="58660"
   width="128"
   height="128"
   id="svg1"
   sodipodi:docname="category-work-type-line.svg"
   inkscape:version="1.4.3 (0d15f75, 2025-12-25)"
   xmlns:inkscape="http://www.inkscape.org/namespaces/inkscape"
   xmlns:sodipodi="http://sodipodi.sourceforge.net/DTD/sodipodi-0.dtd"
   xmlns="http://www.w3.org/2000/svg"
   xmlns:svg="http://www.w3.org/2000/svg">
  <defs
     id="defs1" />
  <sodipodi:namedview
     id="namedview1"
     pagecolor="#ffffff"
     bordercolor="#000000"
     borderopacity="0.25"
     inkscape:showpageshadow="2"
     inkscape:pageopacity="0.0"
     inkscape:pagecheckerboard="0"
     inkscape:deskcolor="#d1d1d1"
     inkscape:zoom="8.8828125"
     inkscape:cx="63.943712"
     inkscape:cy="64"
     inkscape:window-width="2560"
     inkscape:window-height="1351"
     inkscape:window-x="-9"
     inkscape:window-y="-9"
     inkscape:window-maximized="1"
     inkscape:current-layer="svg1" />
  <path
     id="path1"
     d="m 294.10942,115.3549 c -12.95832,0.16905 -25.89808,1.72032 -38.52505,4.63885 -0.0827,0.0256 -1.00727,0.24054 -1.39961,0.33579 -27.05365,6.46706 -52.51865,19.36909 -73.8168,37.25037 -3.01314,2.52074 -5.93948,5.14456 -8.78315,7.8549 -0.14423,0.1343 -0.77866,0.74988 -1.11221,1.07006 -20.94246,20.2913 -36.9267,45.68364 -46.01808,73.39947 -2.64374,8.01793 -4.71045,16.22522 -6.20069,24.53498 -0.0292,0.15499 -0.18359,1.06403 -0.26134,1.51148 -3.88688,22.86588 -3.34822,46.47716 1.59805,69.13861 0.0203,0.0633 0.22824,1.00846 0.31805,1.39844 6.13861,27.185 18.76438,52.85262 36.43211,74.39652 18.42647,22.54829 42.32962,40.59594 69.10874,52.04818 22.46237,9.64959 46.91244,14.59473 71.35559,14.53133 51.59446,-0.005 103.18905,0.0106 154.78345,-0.008 7.58207,-0.12553 14.99432,-3.73503 19.80993,-9.58489 4.13353,-4.90052 6.33244,-11.33941 6.15713,-17.74078 -0.005,-51.6634 0.0112,-103.32688 -0.008,-154.99023 -0.065,-10.31882 -1.01644,-20.63052 -2.83056,-30.78871 -0.0337,-0.15417 -0.19738,-1.06156 -0.28149,-1.50787 -4.8741,-26.06575 -15.65835,-50.98565 -31.22925,-72.44372 -6.50583,-8.98275 -13.83837,-17.36472 -21.86251,-25.02122 -0.14695,-0.13145 -0.78653,-0.74163 -1.12375,-1.05797 -20.76711,-19.5054 -46.18411,-34.04364 -73.57288,-41.91816 -3.0897,-0.89481 -6.20577,-1.69686 -9.33816,-2.42795 -0.0836,-0.0217 -1.01032,-0.22735 -1.40402,-0.31671 -13.70197,-3.05316 -27.75951,-4.482 -41.7951,-4.30277 z m 431.01729,0.0898 c -23.24725,0.28529 -46.43221,5.10142 -67.8442,14.16694 -26.68324,11.25731 -50.55458,29.05065 -69.04672,51.33126 -17.3019,20.77986 -29.89349,45.472 -36.42113,71.7191 -3.76849,15.03171 -5.52349,30.54995 -5.37018,46.04178 0.005,50.8967 -0.0105,101.79354 0.008,152.69015 0.065,7.6484 3.68641,15.14816 9.58674,20.00438 4.90009,4.13295 11.33827,6.33201 17.73902,6.15712 51.66398,-0.005 103.32805,0.0112 154.99198,-0.008 13.33254,-0.0835 26.65463,-1.64263 39.64551,-4.64279 0.0827,-0.0255 1.00738,-0.24008 1.39977,-0.33513 27.75902,-6.62634 53.8444,-20.0325 75.47829,-38.63441 22.2146,-19.02645 39.74997,-43.48624 50.53942,-70.67835 3.35438,-8.42722 6.06004,-17.11162 8.10613,-25.94793 0.0217,-0.0836 0.22736,-1.01033 0.31673,-1.40402 7.24957,-32.54252 5.34932,-67.09457 -5.6138,-98.59374 -9.34169,-27.02965 -25.26682,-51.72586 -45.92206,-71.4942 -20.55878,-19.7375 -45.81716,-34.56554 -73.12398,-42.75217 -6.60801,-1.99074 -13.33254,-3.59229 -20.12535,-4.81058 -0.15498,-0.0292 -1.06403,-0.18359 -1.51147,-0.26134 -10.83691,-1.84694 -21.84119,-2.68445 -32.83261,-2.54768 z m -428.63446,53.00517 c 19.96776,-0.0262 39.92618,4.71318 57.72115,13.77879 21.11197,10.68911 39.13102,27.36296 51.458,47.55939 10.70067,17.43742 17.09481,37.4853 18.46787,57.89811 0.4889,6.89221 0.24698,13.806 0.30543,20.70885 0,38.65326 0,77.30651 0,115.95976 -43.11809,-0.006 -86.23625,0.0123 -129.35429,-0.009 -19.97523,-0.1884 -39.88809,-5.15075 -57.59102,-14.41194 -20.59411,-10.71282 -38.16003,-27.14106 -50.24794,-46.95758 -10.9732,-17.89457 -17.40194,-38.54128 -18.5164,-59.50345 -1.10722,-19.79983 2.44949,-39.85135 10.40086,-58.02428 9.35229,-21.50951 24.75989,-40.32283 43.96058,-53.7861 17.22236,-12.13989 37.49536,-19.91663 58.43059,-22.3393 4.9659,-0.58348 9.96525,-0.87074 14.96517,-0.87305 z m 431.01552,0.0898 c 19.56016,-0.0225 39.113,4.51406 56.63259,13.22159 21.06335,10.40448 39.13819,26.73745 51.65126,46.61782 11.24291,17.76285 17.97004,38.34999 19.36806,59.32638 1.37238,19.83888 -1.93313,39.9939 -9.6838,58.31434 -9.11444,21.68074 -24.35344,40.72149 -43.46309,54.42337 -17.04889,12.28975 -37.17714,20.2742 -58.028,22.94185 -6.65472,0.88679 -13.37573,1.13515 -20.08384,1.05955 -41.4186,0 -82.83721,0 -124.25581,0 0.006,-43.11809 -0.0123,-86.23625 0.009,-129.35429 0.184,-19.60353 4.95155,-39.14874 13.86916,-56.61072 10.57994,-20.82016 26.97967,-38.62969 46.85369,-50.89377 17.58144,-10.91179 37.8653,-17.4108 58.51329,-18.75818 2.86814,-0.19229 5.74284,-0.28193 8.61732,-0.28794 z M 294.10942,546.46025 c -24.54747,0.2987 -49.02696,5.65549 -71.42011,15.72619 -26.58957,11.89806 -50.18853,30.35095 -68.23889,53.2067 -16.85834,21.28116 -28.86656,46.39223 -34.72683,72.90809 -7.11703,32.00874 -5.37285,65.95746 5.14801,97.02504 9.2516,27.49343 25.29249,52.64263 46.21369,72.72554 20.48496,19.73663 45.65982,34.59132 72.89235,42.83766 34.79305,10.60544 72.80314,10.34865 107.4431,-0.75328 27.94813,-8.89306 53.6059,-24.78145 74.13625,-45.71395 20.03396,-20.35163 35.1961,-45.48175 43.72841,-72.74279 5.68339,-18.05509 8.43442,-37.00975 8.27014,-55.93255 -0.005,-51.04698 0.0105,-102.09412 -0.008,-153.141 -0.0644,-7.64847 -3.68672,-15.14808 -9.58674,-20.00438 -4.89998,-4.13322 -11.3384,-6.33135 -17.73902,-6.15713 -51.66398,0.005 -103.32804,-0.0112 -154.99198,0.008 -0.37349,0.003 -0.74698,0.005 -1.12047,0.007 z m 278.22918,0.0845 c -7.52645,0.14875 -14.87874,3.72289 -19.67889,9.51511 -4.17029,4.90903 -6.39173,11.37827 -6.21523,17.80975 0.005,51.66339 -0.0112,103.32687 0.008,154.99022 0.14117,25.00182 5.55006,49.9623 15.83079,72.75624 12.2039,27.17338 31.24807,51.21697 54.84238,69.3919 20.9238,16.17789 45.4337,27.70053 71.26688,33.39504 26.26278,5.80865 53.81828,5.66594 80.02271,-0.39695 0.0827,-0.0256 1.00728,-0.24054 1.39961,-0.33578 27.05365,-6.46707 52.51865,-19.3691 73.8168,-37.25038 3.01314,-2.52074 5.93948,-5.14456 8.78315,-7.8549 0.14423,-0.1343 0.77866,-0.74987 1.11221,-1.07005 20.94247,-20.2913 36.9267,-45.68364 46.01808,-73.39948 2.64374,-8.01792 4.71045,-16.22522 6.20069,-24.53498 0.0292,-0.15498 0.18359,-1.06403 0.26135,-1.51147 3.88687,-22.86589 3.34821,-46.47717 -1.59805,-69.13862 -0.0203,-0.0633 -0.22825,-1.00846 -0.31806,-1.39844 -6.13861,-27.18499 -18.76438,-52.85262 -36.4321,-74.39651 -18.42648,-22.5483 -42.32963,-40.59595 -69.10874,-52.04819 -22.46238,-9.64959 -46.91245,-14.59472 -71.3556,-14.53132 -51.59446,0.005 -103.18905,-0.0106 -154.78344,0.008 z m -275.87101,53.10027 c 42.6291,0 85.25819,0 127.88729,0 -0.006,43.08815 0.0123,86.17638 -0.009,129.26447 -0.184,19.60353 -4.95155,39.14874 -13.86916,56.61072 -10.57994,20.82016 -26.97967,38.6297 -46.85369,50.89378 -17.58143,10.91179 -37.8653,17.4108 -58.51328,18.75817 -19.8614,1.34237 -40.03473,-1.98111 -58.36615,-9.76115 -22.49164,-9.47367 -42.12477,-25.56 -55.88972,-45.70812 -11.94554,-17.37507 -19.45917,-37.76355 -21.6195,-58.73935 -2.12857,-20.29389 0.64096,-41.09589 8.14317,-60.08023 8.62203,-21.9669 23.48277,-41.41702 42.35439,-55.57677 16.97507,-12.80874 37.19654,-21.2826 58.24835,-24.32185 6.11973,-0.89264 12.30332,-1.33338 18.48748,-1.33967 z m 310.3912,0 c 40.71366,0.006 81.42739,-0.0131 122.14099,0.01 19.48716,0.19941 38.91418,4.92834 56.2855,13.76901 20.68351,10.4686 38.40679,26.67699 50.70036,46.32879 11.13271,17.70045 17.78524,38.18329 19.17404,59.04764 1.37659,19.92335 -1.95172,40.16622 -9.7644,58.55309 -9.14253,21.65929 -24.40723,40.66992 -43.53636,54.32982 -17.37938,12.48533 -37.94951,20.48701 -59.20695,22.97374 -21.672,2.58361 -44.00569,-0.44298 -64.15005,-8.868 -21.57811,-8.94965 -40.56827,-23.97642 -54.31522,-42.8567 -12.57006,-17.18014 -20.73955,-37.55199 -23.46016,-58.66859 -0.90372,-6.71653 -1.15805,-13.50138 -1.0814,-20.27296 0,-41.44854 0,-82.89708 0,-124.34562 2.40456,0 4.8091,0 7.21365,0 z"
     style="stroke-width:0.901706" />
</svg>
