<?xml version="1.0" encoding="UTF-8" standalone="no"?>
<svg
   t="1780229794959"
   class="icon"
   viewBox="0 0 1024 1024"
   version="1.1"
   p-id="140760"
   width="128"
   height="128"
   id="svg2"
   sodipodi:docname="行序号.svg"
   inkscape:version="1.4.3 (0d15f75, 2025-12-25)"
   xmlns:inkscape="http://www.inkscape.org/namespaces/inkscape"
   xmlns:sodipodi="http://sodipodi.sourceforge.net/DTD/sodipodi-0.dtd"
   xmlns="http://www.w3.org/2000/svg"
   xmlns:svg="http://www.w3.org/2000/svg">
  <defs
     id="defs2" />
  <sodipodi:namedview
     id="namedview2"
     pagecolor="#ffffff"
     bordercolor="#000000"
     borderopacity="0.25"
     inkscape:showpageshadow="2"
     inkscape:pageopacity="0.0"
     inkscape:pagecheckerboard="0"
     inkscape:deskcolor="#d1d1d1"
     inkscape:zoom="8.8828125"
     inkscape:cx="63.943712"
     inkscape:cy="64"
     inkscape:window-width="2560"
     inkscape:window-height="1351"
     inkscape:window-x="-9"
     inkscape:window-y="-9"
     inkscape:window-maximized="1"
     inkscape:current-layer="svg2" />
  <path
     id="path1"
     d="m 413.30469,173.91211 c -5.08487,0.38391 -10.10939,1.6881 -14.68415,3.95271 -5.03107,2.44701 -9.5125,5.99972 -13.08438,10.30361 -3.93013,4.76353 -6.73733,10.45058 -8.08533,16.47991 -1.39639,6.14298 -1.28661,12.62168 0.31514,18.71484 1.59137,6.12321 4.69052,11.84648 8.94429,16.53012 3.91217,4.3264 8.79933,7.7707 14.19463,9.98903 4.73943,1.9754 9.8678,2.96847 14.99828,3.00927 65.35203,0.0205 130.70471,0.003 196.05699,0.009 91.14432,-0.005 182.28896,0.009 273.43308,-0.007 4.46449,-0.033 8.92351,-0.77498 13.13516,-2.26471 5.18682,-1.83163 9.97746,-4.75907 13.98058,-8.53198 4.23537,-4.00359 7.5733,-8.95326 9.68756,-14.38493 1.91866,-4.90916 2.82368,-10.20039 2.68823,-15.46771 -0.16407,-5.45026 -1.45213,-10.86316 -3.78735,-15.79243 -2.37789,-5.02131 -5.82381,-9.53003 -10.04598,-13.1425 -4.15834,-3.54286 -9.04743,-6.222 -14.2807,-7.79502 -4.09841,-1.25758 -8.3983,-1.74853 -12.67738,-1.69974 -156.01103,0.002 -312.02221,-0.005 -468.03315,0.003 -0.9185,0.0314 -1.83701,0.0628 -2.75552,0.0942 z m 0,298.64258 c -5.08487,0.3839 -10.10939,1.6881 -14.68415,3.95271 -5.03316,2.44405 -9.5116,6.00065 -13.08461,10.30341 -3.92801,4.7611 -6.73355,10.44434 -8.08261,16.47 -1.30195,5.72274 -1.30058,11.7399 0.006,17.46171 1.30523,5.81745 3.96973,11.31321 7.68878,15.97032 3.59171,4.46744 8.15191,8.159 13.29492,10.6952 5.34231,2.66163 11.29453,4.0632 17.26058,4.1193 21.75175,0.0365 43.50466,0.005 65.25687,0.0156 134.77769,-0.002 269.55554,0.005 404.33314,-0.003 4.42684,-0.0297 8.85248,-0.74036 13.03379,-2.20644 5.29,-1.82719 10.1675,-4.81227 14.23298,-8.6567 4.21085,-3.9979 7.52766,-8.93169 9.63243,-14.34349 1.91256,-4.90369 2.81302,-10.18824 2.67859,-15.44812 -0.16657,-5.44835 -1.44862,-10.86118 -3.78508,-15.78867 -2.37454,-5.01643 -5.81754,-9.51945 -10.0328,-13.13066 -4.17398,-3.5606 -9.08556,-6.25285 -14.34456,-7.82336 -4.04767,-1.23431 -8.29042,-1.73056 -12.51529,-1.68505 -156.04436,0.002 -312.08888,-0.005 -468.13315,0.003 -0.9185,0.0314 -1.83701,0.0628 -2.75552,0.0942 z m 0,298.64258 c -5.11559,0.38637 -10.16994,1.70313 -14.76713,3.99269 -4.99918,2.44348 -9.44827,5.98413 -13.00163,10.26343 -3.92903,4.76358 -6.7374,10.44931 -8.0851,16.47815 -1.39617,6.143 -1.28683,12.62169 0.31514,18.71485 1.59037,6.11878 4.68421,11.83937 8.93433,16.52052 3.9122,4.32904 8.80118,7.77629 14.19718,9.99759 4.7426,1.97515 9.87202,2.9729 15.00569,3.01226 65.35203,0.0205 130.70471,0.003 196.05699,0.009 91.14432,-0.005 182.28896,0.009 273.43308,-0.007 4.43723,-0.0335 8.8696,-0.76419 13.05809,-2.23827 5.21629,-1.83061 10.03449,-4.76864 14.05765,-8.56037 4.03511,-3.81017 7.24436,-8.48074 9.37764,-13.60361 2.0921,-5.06658 3.12767,-10.56542 2.99815,-16.04707 -0.12456,-5.5593 -1.45001,-11.0811 -3.83522,-16.10359 -2.50567,-5.22452 -6.15181,-9.90503 -10.64478,-13.56824 -4.07403,-3.34292 -8.82624,-5.83616 -13.87593,-7.3366 -3.96547,-1.1703 -8.10604,-1.66081 -12.23548,-1.62126 -156.0777,0.002 -312.15555,-0.005 -468.23315,0.003 -0.9185,0.0314 -1.83701,0.0628 -2.75552,0.0942 z" />
  <path
     id="path2"
     d="m 161.29883,106.08398 c -6.71925,2.27057 -13.40905,5.37716 -18.40093,10.54863 -3.64581,3.73631 -5.86381,8.75609 -6.33288,13.94258 -0.18471,2.13641 -0.22891,4.29097 -0.16085,6.43276 0.27534,5.3579 2.39156,10.63227 6.01127,14.60758 1.89708,2.18582 3.97474,4.21725 6.21542,6.05049 14.01828,-4.40023 28.03606,-8.80205 42.05469,-13.20118 1.97118,1.91945 3.94234,3.83892 5.91406,5.75782 0.002,54.38676 -0.005,108.7744 0.003,163.16062 0.1581,3.93172 0.76416,7.87628 2.04052,11.60252 1.98815,4.21005 5.72151,7.511 10.1056,9.05512 2.75602,1.03901 5.72365,1.26722 8.62511,1.61376 7.38061,0.78517 14.85279,0.6357 22.20583,-0.36032 3.86226,-0.62359 7.73042,-1.21639 11.60152,-1.78655 0.005,-70.79267 -0.009,-141.58553 0.007,-212.37808 0.25285,-5.15441 -0.78328,-10.36306 -3.03169,-15.01073 -1.56534,-3.14848 -3.57613,-6.130372 -6.17865,-8.514296 -4.69131,-4.231411 -10.94776,-6.328708 -17.16781,-6.83974 -4.19662,-0.343841 -8.41289,-0.124549 -12.61832,-0.186839 -1.91472,0.02183 -3.84397,-0.04353 -5.74968,0.03242 -15.04789,5.157812 -30.09579,10.315625 -45.14368,15.473435 z m 47.96484,283.0625 c -12.3586,0.0388 -24.84756,0.96899 -36.76239,4.43766 -5.67055,1.68648 -11.22514,3.96224 -16.16298,7.25293 -4.21664,2.84644 -7.7251,6.96554 -9.12921,11.92092 -1.06666,3.67497 -1.26123,7.59757 -0.70684,11.37524 0.62055,4.00003 2.53574,7.69752 5.10626,10.79085 0.81825,0.99397 1.68423,1.9522 2.62782,2.82983 6.63002,-3.66754 13.65393,-6.59176 20.81676,-9.04108 9.28568,-3.03442 19.10777,-4.11164 28.84651,-4.00679 3.12502,-0.0271 6.24885,0.30553 9.32126,0.86169 3.17984,0.619 6.30481,1.50944 9.31422,2.71162 3.36372,1.33712 6.57407,3.05695 9.60321,5.03491 1.42511,1.04354 2.7677,2.18193 3.99408,3.45454 1.37936,1.46126 2.57122,3.08333 3.63044,4.79024 0.94315,1.66137 1.74356,3.39404 2.36514,5.20203 0.58949,1.85042 0.99202,3.75122 1.21812,5.68086 0.10193,1.68349 0.27092,3.38578 -0.0606,5.05538 -0.42001,3.58019 -1.3623,7.09105 -2.70397,10.43424 -1.29618,3.21187 -3.01496,6.24809 -5.05614,9.04501 -2.75328,3.57609 -5.58454,7.09571 -8.66861,10.39472 -3.48108,3.87373 -7.25506,7.46868 -11.16396,10.90655 -7.94792,7.03109 -16.25537,13.63982 -24.40457,20.43342 -13.44942,11.11937 -26.92665,22.20614 -40.35868,33.3459 -4.06936,3.42932 -7.48971,7.59527 -10.15809,12.1948 -3.54729,5.6554 -4.45272,12.51292 -4.27786,19.07062 0.0648,5.48909 1.37698,10.96143 3.78416,15.89298 2.3361,3.91933 5.45048,7.35894 9.08745,10.11062 45.13461,-0.005 90.27037,0.01 135.40426,-0.007 3.39877,-0.20205 6.77789,-1.49082 9.31117,-3.78349 2.42278,-2.90004 3.05703,-6.80694 3.36146,-10.4599 0.34295,-4.75557 -0.0781,-9.60378 -1.65531,-14.12346 -0.59247,-1.90439 -1.18312,-3.81146 -1.94892,-5.65512 -37.46224,0 -74.92448,0 -112.38672,0 23.98647,-18.59994 47.99646,-37.16986 71.96891,-55.78766 11.23621,-8.93523 21.72578,-19.06817 29.6382,-31.12049 6.2046,-9.43941 10.5993,-20.2516 11.55861,-31.57244 0.45835,-5.37126 0.21965,-10.81511 -0.836,-16.10424 -0.99978,-5.07419 -2.75134,-9.99214 -5.13079,-14.58209 -2.52354,-4.81105 -5.75008,-9.25852 -9.58597,-13.10914 -4.8786,-4.90242 -10.63282,-8.88575 -16.74991,-12.08855 -6.80112,-3.55867 -14.08915,-6.08987 -21.4731,-8.13076 -9.27489,-2.43777 -18.8746,-3.52169 -28.45127,-3.66939 -1.04206,0.005 -2.08412,0.01 -3.12618,0.0144 z m 6.36524,303.69922 c -12.84477,0.14093 -25.79251,1.15019 -38.22673,4.53884 -5.19241,1.44362 -10.2879,3.32976 -15.0357,5.89321 -4.36753,2.41542 -8.38284,6.01323 -10.03142,10.85015 -1.19453,3.45087 -1.31369,7.20789 -0.8138,10.79876 0.53513,3.27704 1.83753,6.45761 3.94833,9.03794 1.08637,1.35576 2.26986,2.6292 3.53627,3.8186 7.10403,-3.76374 14.81613,-6.24794 22.61721,-8.09964 9.76981,-2.17454 19.84313,-2.80108 29.82881,-2.40315 8.20726,0.42272 16.59177,1.77307 23.90164,5.72154 5.89901,3.20323 10.9867,8.27792 13.29296,14.67188 1.99797,5.4379 1.96835,11.47406 0.60352,17.05664 -1.41962,5.72362 -4.97029,10.88069 -9.85179,14.19857 -6.00989,4.14023 -13.38152,5.69796 -20.55998,6.14163 -5.13232,0.27504 -10.27596,0.0935 -15.41323,0.14613 -7.14297,0 -14.28594,0 -21.42891,0 -1.53087,2.8707 -2.36555,6.05683 -2.68436,9.28409 -0.42299,3.69974 -0.47505,7.43701 -0.382,11.15504 0.21035,4.42706 1.35874,8.79938 3.28902,12.78548 11.53651,0.018 23.07353,-0.0366 34.60972,0.0284 7.49685,0.20333 15.13597,0.93578 22.15591,3.74503 2.95693,1.17832 5.69903,2.86258 8.08343,4.97132 1.48428,1.33233 2.81391,2.82608 3.99581,4.43358 1.12879,1.60687 2.09624,3.32199 2.87583,5.12635 0.77364,1.8346 1.33937,3.75214 1.71289,5.70899 0.35039,1.96214 0.47979,3.95826 0.41211,5.95117 -0.0339,2.55436 -0.31708,5.11419 -1.02272,7.57465 -0.52657,2.07805 -1.37339,4.06253 -2.35618,5.96441 -1.07202,1.97896 -2.36981,3.84152 -3.86594,5.5235 -1.6605,1.83885 -3.53471,3.48629 -5.61779,4.83186 -6.50607,4.69237 -14.49858,6.73881 -22.3602,7.66403 -8.23529,0.91486 -16.56147,0.75663 -24.80646,0.049 -8.46371,-0.8216 -16.93982,-2.4526 -24.79145,-5.80084 -5.76512,-2.72023 -11.46787,-5.58807 -16.95855,-8.83197 -2.4465,1.95813 -4.51517,4.34084 -6.25133,6.94261 -2.94574,4.11314 -3.76444,9.40282 -3.31117,14.35231 0.50811,4.70434 3.29604,8.83719 6.76121,11.92319 6.1255,5.44402 13.77186,8.86908 21.57984,11.13628 8.78563,2.54124 17.88742,3.80979 26.98902,4.52452 0.25158,0.0131 1.19667,0.0848 1.71535,0.12043 0.5098,0.0404 0.97612,0.0641 1.66041,0.10644 1.0733,0.0693 2.14788,0.11536 3.2219,0.17156 0.28611,0.0142 1.19919,0.0497 1.72621,0.0721 5.77783,0.19651 11.56614,0.2773 17.34352,0.0485 5.07832,-0.2041 10.14592,-0.70301 15.16717,-1.48648 5.60287,-0.83592 11.12099,-2.1369 16.59644,-3.57475 6.51177,-1.69625 12.80836,-4.2016 18.73099,-7.39369 5.09827,-2.78229 10.01402,-5.98673 14.22861,-10.00878 4.64491,-4.37626 8.50647,-9.5667 11.42766,-15.2382 3.08343,-5.99051 4.8517,-12.64416 5.20096,-19.37092 0.16861,-4.93979 0.0643,-9.92142 -0.91231,-14.78257 -0.75385,-4.06558 -1.95827,-8.0629 -3.80208,-11.77256 -2.33211,-4.75448 -5.52064,-9.09141 -9.38148,-12.71728 -5.22948,-4.93358 -11.65711,-8.418 -18.30589,-11.04684 -6.29136,-2.36236 -12.58356,-4.7225 -18.87527,-7.08397 6.60514,-3.34195 13.23959,-6.62977 19.82655,-10.00526 4.55876,-2.521 8.76876,-5.66602 12.46767,-9.33497 3.77949,-3.80754 7.18762,-8.08069 9.44633,-12.97624 2.54719,-5.37176 3.81805,-11.33245 3.74159,-17.27442 0.12027,-9.0535 -1.72169,-18.27433 -6.28099,-26.16881 -4.63601,-8.13071 -11.81722,-14.55935 -19.78476,-19.33669 -10.65683,-6.29002 -22.86517,-9.40394 -35.04529,-11.01689 -8.13263,-1.04629 -16.34139,-1.41292 -24.53711,-1.34375 z" />
</svg>
