<?xml version="1.0" encoding="UTF-8" standalone="no"?>
<svg
   t="1780229164939"
   class="icon"
   viewBox="0 0 1024 1024"
   version="1.1"
   p-id="137785"
   width="128"
   height="128"
   id="svg1"
   sodipodi:docname="Range (1).svg"
   inkscape:version="1.4.3 (0d15f75, 2025-12-25)"
   xmlns:inkscape="http://www.inkscape.org/namespaces/inkscape"
   xmlns:sodipodi="http://sodipodi.sourceforge.net/DTD/sodipodi-0.dtd"
   xmlns="http://www.w3.org/2000/svg"
   xmlns:svg="http://www.w3.org/2000/svg">
  <defs
     id="defs1" />
  <sodipodi:namedview
     id="namedview1"
     pagecolor="#ffffff"
     bordercolor="#000000"
     borderopacity="0.25"
     inkscape:showpageshadow="2"
     inkscape:pageopacity="0.0"
     inkscape:pagecheckerboard="0"
     inkscape:deskcolor="#d1d1d1"
     inkscape:zoom="8.8828125"
     inkscape:cx="63.943712"
     inkscape:cy="64"
     inkscape:window-width="2560"
     inkscape:window-height="1351"
     inkscape:window-x="-9"
     inkscape:window-y="-9"
     inkscape:window-maximized="1"
     inkscape:current-layer="svg1" />
  <path
     d="m 161.43953,321.5205 h 502.97551 v 70.18553 c 0,10.03175 10.16394,15.04028 20.32054,10.03175 l 116.85593,-95.25022 a 15.088017,15.088017 0 0 0 0,-20.04881 L 684.73558,191.17384 c -10.16394,-5.01587 -20.32054,0 -20.32054,10.03175 v 70.18553 H 161.43953 c -14.03417,0 -25.4025,11.22146 -25.4025,25.06469 0,13.84323 11.36833,25.06469 25.4025,25.06469 z M 862.56047,136.03593 c -13.23369,-0.77845 -24.60203,9.16518 -25.40251,22.22261 -0.0588,0.94736 -0.0588,1.90207 0,2.84208 v 250.65422 c 0,13.84323 11.36834,25.06469 25.40251,25.06469 14.03417,0 25.4025,-11.22146 25.4025,-25.06469 V 161.10062 c -0.88126,-13.47603 -11.75756,-24.20545 -25.4025,-25.06469 z m 0,586.54161 H 359.58496 V 652.392 c 0,-10.03175 -10.16394,-15.04028 -20.32054,-10.03175 l -116.85593,95.25022 a 15.088017,15.088017 0 0 0 0,20.04882 l 116.85593,95.24287 c 10.16394,5.01588 20.32054,0 20.32054,-10.03175 v -70.18553 h 502.97551 c 13.23368,0.77845 24.60202,-9.16517 25.4025,-22.2226 0.0587,-0.94737 0.0587,-1.90207 0,-2.84209 -0.88126,-13.454 -11.75756,-24.18342 -25.4025,-25.04265 z M 161.43953,587.215 c -13.23368,-0.77845 -24.60202,9.16517 -25.4025,22.22261 -0.0587,0.94736 -0.0587,1.90206 0,2.84208 v 250.65422 c 0,13.84323 11.36833,25.06469 25.4025,25.06469 14.03417,0 25.40251,-11.22146 25.40251,-25.06469 V 612.28703 C 185.96812,598.811 175.09182,588.08158 161.43953,587.215 Z"
     fill="#111111"
     p-id="137786"
     id="path1"
     style="stroke-width:0.736;stroke-dasharray:none" />
</svg>
