<?xml version="1.0" encoding="UTF-8" standalone="no"?>
<svg
   viewBox="0 0 1024 1024"
   version="1.1"
   id="svg2"
   sodipodi:docname="category-multi-image-line.svg"
   inkscape:version="1.4.3 (0d15f75, 2025-12-25)"
   xmlns:inkscape="http://www.inkscape.org/namespaces/inkscape"
   xmlns:sodipodi="http://sodipodi.sourceforge.net/DTD/sodipodi-0.dtd"
   xmlns="http://www.w3.org/2000/svg"
   xmlns:svg="http://www.w3.org/2000/svg">
  <defs
     id="defs2" />
  <sodipodi:namedview
     id="namedview2"
     pagecolor="#ffffff"
     bordercolor="#000000"
     borderopacity="0.25"
     inkscape:showpageshadow="2"
     inkscape:pageopacity="0.0"
     inkscape:pagecheckerboard="0"
     inkscape:deskcolor="#d1d1d1"
     inkscape:zoom="1.1103516"
     inkscape:cx="511.54969"
     inkscape:cy="512"
     inkscape:window-width="2560"
     inkscape:window-height="1351"
     inkscape:window-x="-9"
     inkscape:window-y="-9"
     inkscape:window-maximized="1"
     inkscape:current-layer="svg2" />
  <g
     fill-opacity="0"
     stroke="currentColor"
     stroke-width="64"
     stroke-linecap="round"
     stroke-linejoin="round"
     id="g2">
    <rect
       x="126.67722"
       y="164.98154"
       width="416"
       height="320"
       rx="48"
       id="rect1"
       style="stroke-width:42;stroke-dasharray:none" />
    <circle
       cx="414.67722"
       cy="260.98154"
       r="40"
       id="circle1"
       style="stroke-width:30;stroke-dasharray:none" />
    <path
       d="m 190.67722,420.98153 96,-112 96,96 80,-80 80,80"
       id="path1"
       style="stroke-width:42;stroke-dasharray:none" />
    <rect
       x="455.20493"
       y="551.62708"
       width="416"
       height="320"
       rx="48"
       id="rect2"
       style="stroke-width:42;stroke-dasharray:none" />
    <path
       id="circle2"
       d="m 742.08579,606.66029 c -11.48523,0.26548 -22.73364,5.65395 -30.12936,14.44808 -6.94343,8.15093 -10.49787,19.09119 -9.60856,29.76786 0.83513,10.76385 6.11339,21.10898 14.395,28.0475 8.19852,6.95941 19.20493,10.49937 29.92317,9.54008 10.66188,-0.88171 20.89708,-6.1202 27.78431,-14.31754 6.75452,-7.92677 10.31082,-18.49064 9.67255,-28.89027 -0.60696,-10.78928 -5.6699,-21.25521 -13.81324,-28.37105 -7.6869,-6.79602 -17.96226,-10.54015 -28.22387,-10.22466 z"
       style="stroke-width:30;stroke-dasharray:none" />
    <path
       d="m 519.20493,807.62709 96,-112 96,96 80,-80 80,80"
       id="path2"
       style="stroke-width:40;stroke-dasharray:none" />
  </g>
</svg>
