<?xml version="1.0" encoding="UTF-8" standalone="no"?>
<svg
   t="1780224295614"
   class="icon"
   viewBox="0 0 1024 1024"
   version="1.1"
   p-id="60039"
   width="128"
   height="128"
   id="svg1"
   sodipodi:docname="category-work-data-line.svg"
   inkscape:version="1.4.3 (0d15f75, 2025-12-25)"
   xmlns:inkscape="http://www.inkscape.org/namespaces/inkscape"
   xmlns:sodipodi="http://sodipodi.sourceforge.net/DTD/sodipodi-0.dtd"
   xmlns="http://www.w3.org/2000/svg"
   xmlns:svg="http://www.w3.org/2000/svg">
  <defs
     id="defs1" />
  <sodipodi:namedview
     id="namedview1"
     pagecolor="#ffffff"
     bordercolor="#000000"
     borderopacity="0.25"
     inkscape:showpageshadow="2"
     inkscape:pageopacity="0.0"
     inkscape:pagecheckerboard="0"
     inkscape:deskcolor="#d1d1d1"
     inkscape:zoom="8.8828125"
     inkscape:cx="63.943712"
     inkscape:cy="64"
     inkscape:window-width="2560"
     inkscape:window-height="1351"
     inkscape:window-x="-9"
     inkscape:window-y="-9"
     inkscape:window-maximized="1"
     inkscape:current-layer="svg1" />
  <path
     id="path1"
     d="m 149.19486,150.00008 c -8.55323,0.16186 -16.89389,4.33615 -22.2034,11.03427 -4.39167,5.40767 -6.68195,12.41537 -6.4693,19.36825 0.003,221.45057 -0.005,442.90121 0.004,664.35173 -0.009,8.54423 3.98685,16.95826 10.56663,22.39808 5.47176,4.63727 12.68492,7.08193 19.84389,6.85921 241.09463,-0.003 482.18934,0.005 723.28391,-0.004 8.54423,0.009 16.95826,-3.98686 22.39808,-10.56664 5.37947,-6.33459 7.79351,-15.02119 6.54122,-23.22833 -1.28305,-9.18323 -7.25393,-17.5154 -15.47605,-21.77526 -4.62866,-2.46845 -9.92117,-3.53791 -15.14699,-3.35762 -231.02762,0 -462.05523,0 -693.08284,0 -0.003,-211.9448 0.005,-423.88967 -0.004,-635.83441 0.009,-8.54423 -3.98686,-16.95826 -10.56664,-22.39808 -5.43882,-4.59475 -12.5734,-7.06741 -19.68851,-6.84688 z M 850.9794,304.69909 c -7.49898,0.19914 -14.83635,3.42733 -20.08275,8.78396 C 751.34477,390.45922 671.79181,467.43427 592.2406,544.41115 555.09856,507.5495 517.95303,470.69137 480.80962,433.8311 c -0.26526,-0.26278 -0.83133,-0.8031 -1.22296,-1.16129 -7.31689,-6.71968 -17.36858,-10.30873 -27.28513,-9.78707 -9.41303,0.40606 -18.58738,4.51428 -25.17045,11.25307 -51.04736,50.7172 -102.10993,101.41935 -153.1478,152.14594 -6.03655,6.17024 -9.04439,15.10068 -8.05782,23.66711 0.84657,8.19213 5.36775,15.8789 12.05434,20.67115 7.33568,5.3708 17.22054,6.96884 25.89091,4.26416 5.03908,-1.50989 9.56579,-4.48266 13.1541,-8.30705 45.70224,-45.39839 91.40208,-90.79918 137.10584,-136.19605 37.23608,36.94845 74.4604,73.90893 111.70845,110.8452 7.25416,7.04139 17.43234,10.90715 27.52889,10.51275 9.39129,-0.28132 18.59494,-4.24261 25.26504,-10.85848 84.68329,-81.94607 169.37588,-163.88264 254.05336,-245.83464 5.98032,-5.8586 9.19255,-14.36683 8.6352,-22.71405 -0.44918,-8.17355 -4.5391,-16.0323 -10.93163,-21.13554 -5.41941,-4.41044 -12.43324,-6.72956 -19.41056,-6.49722 z"
     style="stroke-width:1.05236" />
</svg>
