<?xml version="1.0" encoding="UTF-8" standalone="no"?>
<svg
   t="1780228202726"
   class="icon"
   viewBox="0 0 1024 1024"
   version="1.1"
   p-id="119781"
   width="128"
   height="128"
   id="svg1"
   sodipodi:docname="category-appearance-line.svg"
   inkscape:version="1.4.3 (0d15f75, 2025-12-25)"
   xmlns:inkscape="http://www.inkscape.org/namespaces/inkscape"
   xmlns:sodipodi="http://sodipodi.sourceforge.net/DTD/sodipodi-0.dtd"
   xmlns="http://www.w3.org/2000/svg"
   xmlns:svg="http://www.w3.org/2000/svg">
  <defs
     id="defs1" />
  <sodipodi:namedview
     id="namedview1"
     pagecolor="#ffffff"
     bordercolor="#000000"
     borderopacity="0.25"
     inkscape:showpageshadow="2"
     inkscape:pageopacity="0.0"
     inkscape:pagecheckerboard="0"
     inkscape:deskcolor="#d1d1d1"
     inkscape:zoom="8.8828125"
     inkscape:cx="63.943712"
     inkscape:cy="64"
     inkscape:window-width="2560"
     inkscape:window-height="1351"
     inkscape:window-x="-9"
     inkscape:window-y="-9"
     inkscape:window-maximized="1"
     inkscape:current-layer="svg1" />
  <path
     id="path1"
     d="m 509.33789,96.09375 c -1.07976,0.01095 -2.24127,0.02027 -3.19134,0.0334 -2.52848,0.03488 -5.05653,0.09444 -7.58405,0.171677 -0.39565,0.01739 -1.19998,0.04181 -1.75206,0.0619 -1.14602,0.03492 -2.56573,0.10358 -3.5331,0.137323 -12.3342,0.55194 -24.64499,1.636958 -36.88281,3.273437 -0.38999,0.05014 -1.18967,0.162466 -1.73648,0.236406 -18.24804,2.51168 -36.32677,6.24963 -54.07797,11.16789 -0.36615,0.1073 -1.15598,0.32479 -1.68432,0.47428 -8.46072,2.3818 -16.84263,5.04255 -25.13404,7.95932 -0.36871,0.12736 -1.13147,0.40186 -1.65103,0.58554 -7.42056,2.65055 -14.76551,5.5128 -22.0228,8.58242 -0.34673,0.14452 -1.10454,0.47091 -1.60866,0.68507 -14.91571,6.38138 -29.45222,13.64797 -43.51634,21.73486 -0.35606,0.20131 -1.03962,0.60065 -1.52104,0.87776 -45.95663,26.66758 -86.71562,62.22985 -119.40564,104.11442 C 171.95097,271.65868 160.9613,287.9836 151.17383,305 c -0.19913,0.35732 -0.59546,1.04261 -0.87007,1.52547 -8.02849,14.09772 -15.22678,28.66799 -21.5479,43.6093 -0.14178,0.34788 -0.46421,1.10737 -0.67516,1.61285 -3.04148,7.26915 -5.86669,14.62845 -8.4889,22.05902 -0.12446,0.36974 -0.39482,1.13396 -0.57513,1.6547 -2.88558,8.30239 -5.50337,16.69781 -7.85261,25.16757 -0.10437,0.36696 -0.31767,1.15794 -0.46374,1.68724 -4.84637,17.77117 -8.49777,35.86748 -10.936648,54.12526 -0.04704,0.3904 -0.154987,1.19067 -0.225342,1.73796 -1.509782,11.64928 -2.513973,23.36331 -3.040283,35.09797 -0.0111,0.36981 -0.04869,1.19976 -0.06993,1.74575 -0.05157,1.1512 -0.08942,2.54616 -0.129287,3.53941 -0.08346,2.69409 -0.142401,5.38886 -0.179687,8.08398 -6.24e-4,0.40434 -0.01176,1.20063 -0.01641,1.75499 -0.02723,2.99893 -0.01851,5.99815 0.01837,8.99697 0.0036,0.4043 0.01883,1.20053 0.02689,1.75484 0.03264,2.09513 0.08848,4.18979 0.150849,6.28422 0.01739,0.39565 0.04181,1.19998 0.0619,1.75206 0.03492,1.14602 0.10358,2.56573 0.137323,3.5331 0.55194,12.3342 1.636958,24.64499 3.273437,36.88281 0.05014,0.38999 0.162466,1.18967 0.236406,1.73648 2.51168,18.24804 6.24963,36.32677 11.16789,54.07797 0.1073,0.36615 0.32479,1.15598 0.47428,1.68432 2.3818,8.46072 5.04255,16.84263 7.95932,25.13404 0.12736,0.36871 0.40186,1.13147 0.58554,1.65103 2.65055,7.42056 5.5128,14.76551 8.58242,22.0228 0.14452,0.34673 0.47091,1.10454 0.68507,1.60866 6.38138,14.91571 13.64797,29.45222 21.73486,43.51634 0.20131,0.35606 0.60065,1.03962 0.87776,1.52104 26.66758,45.95663 62.22985,86.71562 104.11442,119.40564 15.46923,12.08524 31.79415,23.07491 48.81055,32.86238 0.35732,0.19913 1.04261,0.59546 1.52547,0.87007 14.09772,8.02849 28.66799,15.22678 43.6093,21.5479 0.34788,0.14178 1.10737,0.46421 1.61285,0.67516 7.26915,3.04148 14.62845,5.86669 22.05902,8.4889 0.36974,0.12446 1.13396,0.39482 1.6547,0.57513 8.30239,2.88558 16.69781,5.50337 25.16757,7.85261 0.36696,0.10437 1.15794,0.31767 1.68724,0.46374 17.77117,4.84637 35.86748,8.49777 54.12526,10.93665 0.3904,0.047 1.19067,0.15499 1.73796,0.22534 11.64928,1.50978 23.36331,2.51397 35.09797,3.04028 0.36981,0.0111 1.19976,0.0487 1.74575,0.0699 1.1512,0.0516 2.54616,0.0894 3.53941,0.12929 2.69409,0.0835 5.38886,0.1424 8.08398,0.17969 0.40434,6.2e-4 1.20063,0.0118 1.75499,0.0164 4.83531,0.10207 9.71523,-0.0385 14.44278,-1.15317 8.08178,-1.77782 15.51458,-6.11619 21.21625,-12.08995 7.47552,-7.76364 12.31279,-17.68671 15.4964,-27.89199 3.68546,-11.91184 5.17972,-24.4225 5.19413,-36.86523 -0.15128,-6.6983 -2.27799,-13.15874 -4.69168,-19.34495 -4.53688,-11.27401 -10.51342,-21.88837 -16.47282,-32.45483 -6.98273,-12.45676 -14.31359,-24.7539 -20.23226,-37.76879 -3.69998,-8.25759 -6.95096,-16.88395 -7.88357,-25.94555 -0.69518,-6.78866 0.25718,-13.92171 3.75408,-19.87276 2.64687,-4.62944 6.72259,-8.28169 11.25632,-11.01417 10.11592,-6.30306 21.90675,-9.37466 33.66292,-10.67432 14.26638,-1.55213 28.67727,-0.75086 42.89964,0.87206 19.64167,2.26875 39.04878,6.16721 58.36685,10.31453 27.49678,5.89525 54.84998,12.51548 82.55486,17.39478 2.65408,0.45831 5.30722,0.92214 7.96627,1.35098 0.37937,0.0553 1.18605,0.1872 1.72901,0.27183 0.59765,0.0934 1.16144,0.18616 1.6391,0.25901 0.86969,0.13086 2.01676,0.30952 2.70547,0.40928 0.92996,0.13584 2.13461,0.30742 2.89517,0.4212 10.45171,1.49098 21.45221,2.63679 31.6976,3.05429 14.40288,0.54932 29.01247,-0.0486 43.00919,-3.74391 11.2765,-3.00006 21.59259,-9.08122 30.1687,-16.93633 11.90339,-10.88088 20.76517,-24.66299 27.79834,-39.07326 0.28711,-0.59831 0.57422,-1.19662 0.86133,-1.79493 0.0893,-0.2043 0.50644,-1.08678 0.72231,-1.55291 1.74838,-3.76721 3.36726,-7.59325 4.89487,-11.4549 0.0966,-0.23883 0.43563,-1.11788 0.62556,-1.6032 1.28802,-3.33566 2.49403,-6.70256 3.64398,-10.0882 0.11133,-0.32353 0.38109,-1.1386 0.55314,-1.65049 4.27881,-12.93573 7.61058,-26.1694 10.30232,-39.52139 0.0544,-0.25917 0.2331,-1.17704 0.33533,-1.68967 1.77659,-9.12922 3.26146,-18.3147 4.46546,-27.53689 0.0389,-0.28213 0.15129,-1.19063 0.21843,-1.71346 2.22748,-17.82559 3.53595,-35.7751 3.70053,-53.74122 0.0239,-2.82239 0.0184,-5.64494 -0.0186,-8.4672 -0.004,-0.4043 -0.0188,-1.20053 -0.0269,-1.75484 -0.0326,-2.09513 -0.0885,-4.18979 -0.15085,-6.28422 -0.0174,-0.39565 -0.0418,-1.19998 -0.0619,-1.75206 -0.0349,-1.14602 -0.10358,-2.56573 -0.13733,-3.5331 -0.55194,-12.3342 -1.63696,-24.64499 -3.27343,-36.88281 -0.0502,-0.38999 -0.16247,-1.18967 -0.23641,-1.73648 -2.51168,-18.24804 -6.24963,-36.32677 -11.16789,-54.07797 -0.1073,-0.36615 -0.32479,-1.15598 -0.47428,-1.68432 -2.3818,-8.46072 -5.04255,-16.84263 -7.95932,-25.13404 -0.12736,-0.36871 -0.40186,-1.13147 -0.58554,-1.65103 -2.65055,-7.42056 -5.5128,-14.76551 -8.58242,-22.0228 -0.14452,-0.34673 -0.47091,-1.10454 -0.68507,-1.60866 -6.38138,-14.91571 -13.64797,-29.45222 -21.73486,-43.51634 -0.20131,-0.35606 -0.60065,-1.03962 -0.87776,-1.52104 C 845.25739,257.48522 809.69512,216.72623 767.81055,184.03621 752.34132,171.95097 736.0164,160.9613 719,151.17383 c -0.35732,-0.19913 -1.04261,-0.59546 -1.52547,-0.87007 -14.09772,-8.02849 -28.66799,-15.22678 -43.6093,-21.5479 -0.34788,-0.14178 -1.10737,-0.46421 -1.61285,-0.67516 -7.26915,-3.04148 -14.62845,-5.86669 -22.05902,-8.4889 -0.36974,-0.12446 -1.13396,-0.39482 -1.6547,-0.57513 -8.30239,-2.88558 -16.69781,-5.50337 -25.16757,-7.85261 -0.36696,-0.10437 -1.15794,-0.31767 -1.68724,-0.46374 -17.77117,-4.84637 -35.86748,-8.49777 -54.12526,-10.936648 -0.3904,-0.04704 -1.19067,-0.154987 -1.73796,-0.225342 -11.64928,-1.509782 -23.36331,-2.513973 -35.09797,-3.040283 -0.36981,-0.0111 -1.19976,-0.04869 -1.74575,-0.06993 -1.1512,-0.05157 -2.54616,-0.08942 -3.53941,-0.129287 -2.69409,-0.08346 -5.38886,-0.142401 -8.08398,-0.179687 -0.40434,-6.24e-4 -1.20063,-0.01176 -1.75499,-0.01641 -2.0868,-0.0209 -4.17377,-0.01712 -6.26064,-0.009 z M 512,146.15039 c 33.25391,5.6e-4 66.5154,4.47905 98.54591,13.43348 37.59227,10.47058 73.45347,27.08403 105.79852,48.91001 34.90203,23.53873 65.71023,53.12512 90.63015,87.05537 22.94313,31.18855 40.8876,66.04785 52.89413,102.85938 11.36179,34.79334 17.39287,71.30809 17.93227,107.90203 0.32892,21.96422 -1.31957,43.94244 -4.56815,65.66125 -3.02114,19.74967 -7.34194,39.37763 -14.1801,58.18043 -3.88614,10.51207 -8.45775,20.87804 -14.85042,30.12969 -3.65101,5.16258 -7.93808,10.13332 -13.57229,13.18261 -3.32546,1.80114 -7.12248,2.38617 -10.81158,2.9678 -9.21544,1.31094 -18.57349,1.04121 -27.82928,0.34537 -15.82803,-1.26661 -31.50637,-3.91793 -47.09324,-6.88359 -19.80995,-3.802 -39.45166,-8.40867 -59.16088,-12.68868 -18.4517,-4.03498 -36.92984,-8.01689 -55.59103,-10.97154 -14.18257,-2.17085 -28.47651,-3.72154 -42.82086,-4.21833 -4.17205,-0.12497 -8.34704,-0.17331 -12.52042,-0.086 -0.30158,0.0115 -1.197,0.0305 -1.72656,0.0449 -1.20018,0.0365 -2.40009,0.0806 -3.59961,0.13477 -0.27834,0.0182 -1.16695,0.0605 -1.67968,0.0879 -16.96966,0.92128 -33.97132,4.20246 -49.53595,11.18453 -9.02893,4.05426 -17.60436,9.19764 -25.23487,15.51548 -9.75579,8.09387 -17.64497,18.52082 -22.31553,30.33587 -5.34025,13.32436 -6.59589,28.04205 -4.82599,42.21814 1.35073,10.91279 4.42402,21.55986 8.45412,31.77068 5.29962,13.28226 12.3113,25.7829 19.28307,38.23894 5.65666,10.06596 11.54215,20.01469 16.67897,30.36185 1.62703,3.40368 3.24518,6.85069 4.39163,10.43923 -0.24598,7.31958 -1.14778,14.68539 -3.552,21.63447 -0.42503,1.33204 -0.85006,2.66408 -1.2751,3.99612 -8.81559,-0.17605 -17.63389,-0.43296 -26.42467,-1.14968 -38.61019,-2.95979 -76.74111,-12.11739 -112.46304,-27.07136 -41.33617,-17.26343 -79.41492,-42.25044 -111.775,-73.22103 -32.28823,-30.84611 -58.89036,-67.63194 -77.99741,-107.99589 -15.86944,-33.4586 -26.55907,-69.36079 -31.60663,-106.04559 -6.42164,-46.71582 -3.87452,-94.67615 7.71014,-140.39735 10.23699,-40.57062 27.59217,-79.32062 50.96329,-114.02334 24.48222,-36.39793 55.54803,-68.34806 91.24647,-93.83967 33.68383,-24.09402 71.49687,-42.40567 111.30866,-53.82343 32.68576,-9.39654 66.69153,-14.13632 100.69709,-14.17216 0.15863,-7.1e-4 0.31725,-0.003 0.47587,-0.003 z m 31.79883,60.05859 c -11.04437,0.24324 -21.93185,4.56554 -30.13168,11.96837 -8.90853,7.90618 -14.61992,19.30946 -15.52738,31.1937 -0.92969,10.89176 2.08245,22.07303 8.42757,30.98233 6.9483,9.90775 17.84228,16.96711 29.75767,19.14159 11.48734,2.17781 23.76899,-0.084 33.65622,-6.34888 10.41187,-6.47429 18.11018,-17.16342 20.86371,-29.11943 2.77331,-11.72657 0.8601,-24.50387 -5.36737,-34.83616 -6.37365,-10.77852 -17.21205,-18.81592 -29.40787,-21.69328 -4.01013,-0.96963 -8.14779,-1.38559 -12.27087,-1.28824 z M 334.59375,277.7793 c -11.06857,0.2424 -21.97696,4.58696 -30.18565,12.01447 -8.57822,7.64586 -14.18964,18.52989 -15.36412,29.96756 -1.17971,10.78222 1.48272,21.94884 7.51011,30.97813 6.72902,10.24664 17.59965,17.68502 29.62038,20.13885 11.49473,2.4215 23.88033,0.3794 33.92183,-5.74217 10.6354,-6.3678 18.56989,-17.09016 21.45096,-29.15636 2.88991,-11.76427 1.04427,-24.6314 -5.17121,-35.04495 -6.22245,-10.62928 -16.77537,-18.62311 -28.71516,-21.67154 -4.25943,-1.10387 -8.66943,-1.59128 -13.06714,-1.48399 z m 390.88281,66.06445 c -11.07763,0.24294 -21.99605,4.59256 -30.20611,12.0332 -8.56714,7.64076 -14.16689,18.51423 -15.34431,29.93899 -1.19081,10.85689 1.516,22.1051 7.63042,31.16746 6.72293,10.1406 17.51456,17.49395 29.44017,19.94763 11.46402,2.42798 23.81953,0.42072 33.85587,-5.65476 10.76865,-6.40084 18.78763,-17.26158 21.63446,-29.47086 2.82873,-11.78164 0.91595,-24.64213 -5.35898,-35.02339 -6.4081,-10.81619 -17.31892,-18.86013 -29.57502,-21.69714 -3.94994,-0.93547 -8.01967,-1.33775 -12.0765,-1.24113 z M 257.51953,470.4668 c -11.07757,0.24453 -21.9971,4.59273 -30.20611,12.03515 -8.82355,7.8639 -14.49336,19.1642 -15.43891,30.95311 -0.97727,10.96857 2.04562,22.24522 8.45129,31.21076 6.93217,9.85783 17.77573,16.8805 29.63524,19.07274 11.22287,2.14223 23.21048,0.0628 32.98927,-5.87075 10.71457,-6.39013 18.69882,-17.19694 21.5582,-29.34996 2.86404,-11.82285 0.9477,-24.74279 -5.36427,-35.15823 -6.40884,-10.78341 -17.29175,-18.80687 -29.52027,-21.64438 -3.95795,-0.9408 -8.03867,-1.34398 -12.10444,-1.24844 z" />
</svg>
