<?xml version="1.0" encoding="UTF-8" standalone="no"?>
<svg
   t="1780231852638"
   class="icon"
   viewBox="0 0 1024 1024"
   version="1.1"
   p-id="145692"
   width="128"
   height="128"
   id="svg1"
   sodipodi:docname="category-download-record-line.svg"
   inkscape:version="1.4.3 (0d15f75, 2025-12-25)"
   xmlns:inkscape="http://www.inkscape.org/namespaces/inkscape"
   xmlns:sodipodi="http://sodipodi.sourceforge.net/DTD/sodipodi-0.dtd"
   xmlns="http://www.w3.org/2000/svg"
   xmlns:svg="http://www.w3.org/2000/svg">
  <defs
     id="defs1" />
  <sodipodi:namedview
     id="namedview1"
     pagecolor="#ffffff"
     bordercolor="#000000"
     borderopacity="0.25"
     inkscape:showpageshadow="2"
     inkscape:pageopacity="0.0"
     inkscape:pagecheckerboard="0"
     inkscape:deskcolor="#d1d1d1"
     inkscape:zoom="8.8828125"
     inkscape:cx="63.943712"
     inkscape:cy="64"
     inkscape:window-width="2560"
     inkscape:window-height="1351"
     inkscape:window-x="-9"
     inkscape:window-y="-9"
     inkscape:window-maximized="1"
     inkscape:current-layer="svg1" />
  <path
     d="m 512.512,901.51627 a 389.51627,389.51627 0 1 1 0,-779.03254 389.51627,389.51627 0 0 1 0,779.03254 z m 0,-55.65755 a 333.85872,333.85872 0 1 0 0,-667.71744 333.85872,333.85872 0 0 0 0,667.71744 z M 484.98618,311.52896 c 15.53737,0 28.13173,12.59436 28.13173,28.13173 V 516.32796 L 672.08383,652.1393 a 27.698935,27.698935 0 0 1 2.85645,39.2113 28.261569,28.261569 0 0 1 -39.60082,2.89974 L 456.85445,541.86291 V 339.66069 c 0,-15.53737 12.59436,-28.13173 28.13173,-28.13173 z"
     fill="#111111"
     p-id="145693"
     id="path1"
     style="stroke-width:0.760774" />
</svg>
