<?xml version="1.0" encoding="UTF-8" standalone="no"?>
<svg
   t="1780227860978"
   class="icon"
   viewBox="0 0 1024 1024"
   version="1.1"
   p-id="111068"
   width="128"
   height="128"
   id="svg1"
   sodipodi:docname="其他.svg"
   inkscape:version="1.4.3 (0d15f75, 2025-12-25)"
   xmlns:inkscape="http://www.inkscape.org/namespaces/inkscape"
   xmlns:sodipodi="http://sodipodi.sourceforge.net/DTD/sodipodi-0.dtd"
   xmlns="http://www.w3.org/2000/svg"
   xmlns:svg="http://www.w3.org/2000/svg">
  <defs
     id="defs1" />
  <sodipodi:namedview
     id="namedview1"
     pagecolor="#ffffff"
     bordercolor="#000000"
     borderopacity="0.25"
     inkscape:showpageshadow="2"
     inkscape:pageopacity="0.0"
     inkscape:pagecheckerboard="0"
     inkscape:deskcolor="#d1d1d1"
     inkscape:zoom="8.8828125"
     inkscape:cx="63.943712"
     inkscape:cy="64"
     inkscape:window-width="2560"
     inkscape:window-height="1351"
     inkscape:window-x="-9"
     inkscape:window-y="-9"
     inkscape:window-maximized="1"
     inkscape:current-layer="svg1" />
  <path
     d="m 799.48979,393.13691 c -65.69896,0 -119.1485,53.44954 -119.1485,119.14757 0,65.69803 53.44954,119.14757 119.1485,119.14757 65.69803,0 119.14757,-53.44954 119.14757,-119.14757 0,-65.69803 -53.44861,-119.14757 -119.14757,-119.14757 z m 0,191.52854 c -39.91174,0 -72.3819,-32.47016 -72.3819,-72.38097 0,-39.91081 32.47016,-72.38097 72.3819,-72.38097 39.91081,0 72.38097,32.47016 72.38097,72.38097 0,39.91081 -32.47016,72.38097 -72.38097,72.38097 z M 504.82828,393.13691 c -65.69803,0 -119.14757,53.44954 -119.14757,119.14757 0,65.69803 53.44861,119.14757 119.14757,119.14757 65.69896,0 119.14756,-53.44954 119.14756,-119.14757 0,-65.69803 -53.44954,-119.14757 -119.14756,-119.14757 z m 0,191.52854 c -39.91081,0 -72.38004,-32.47016 -72.38004,-72.38097 0,-39.91081 32.46923,-72.38097 72.38004,-72.38097 39.91081,0 72.38097,32.47016 72.38097,72.38097 0,39.91081 -32.4711,72.38097 -72.38097,72.38097 z M 224.90418,393.13691 c -65.69803,0 -119.14757,53.44954 -119.14757,119.14757 0,65.69803 53.44954,119.14757 119.14757,119.14757 65.69802,0 119.14757,-53.44954 119.14757,-119.14757 0,-65.69803 -53.44861,-119.14757 -119.14757,-119.14757 z m 0,191.52854 c -39.91081,0 -72.38097,-32.47016 -72.38097,-72.38097 0,-39.91081 32.47016,-72.38097 72.38097,-72.38097 39.91081,0 72.38097,32.47016 72.38097,72.38097 0,39.91081 -32.47016,72.38097 -72.38097,72.38097 z"
     p-id="111069"
     fill="#111111"
     id="path1"
     style="stroke-width:0.913007" />
</svg>
