<?xml version="1.0" encoding="UTF-8" standalone="no"?>
<svg
   t="1780226653393"
   class="icon"
   viewBox="0 0 1024 1024"
   version="1.1"
   p-id="74905"
   width="128"
   height="128"
   id="svg2"
   sodipodi:docname="category-image-size-line.svg"
   inkscape:version="1.4.3 (0d15f75, 2025-12-25)"
   xmlns:inkscape="http://www.inkscape.org/namespaces/inkscape"
   xmlns:sodipodi="http://sodipodi.sourceforge.net/DTD/sodipodi-0.dtd"
   xmlns="http://www.w3.org/2000/svg"
   xmlns:svg="http://www.w3.org/2000/svg">
  <defs
     id="defs2" />
  <sodipodi:namedview
     id="namedview2"
     pagecolor="#ffffff"
     bordercolor="#000000"
     borderopacity="0.25"
     inkscape:showpageshadow="2"
     inkscape:pageopacity="0.0"
     inkscape:pagecheckerboard="0"
     inkscape:deskcolor="#d1d1d1"
     inkscape:zoom="8.8828125"
     inkscape:cx="63.943712"
     inkscape:cy="64"
     inkscape:window-width="2560"
     inkscape:window-height="1351"
     inkscape:window-x="-9"
     inkscape:window-y="-9"
     inkscape:window-maximized="1"
     inkscape:current-layer="svg2" />
  <path
     d="m 232.97503,886.05345 c -52.36263,0 -95.02848,-42.66585 -95.02848,-95.02848 V 232.97503 c 0,-52.36263 42.66585,-95.02848 95.02848,-95.02848 h 558.04994 c 52.36263,0 95.02848,42.66585 95.02848,95.02848 v 558.04994 c 0,52.36263 -42.66585,95.02848 -95.02848,95.02848 z m 0,-697.68362 c -24.48438,0 -44.36278,19.8784 -44.36278,44.36279 v 558.04993 c 0,24.48438 19.8784,44.36278 44.36278,44.36278 h 558.04994 c 24.48438,0 44.36278,-19.8784 44.36278,-44.36278 V 232.97503 c 0,-24.48438 -19.8784,-44.36278 -44.36278,-44.36278 H 232.97503 Z"
     fill="#111111"
     p-id="74906"
     id="path1"
     style="stroke-width:0.852256" />
  <path
     d="m 722.54588,494.63745 c -11.57502,0 -20.75522,-9.37977 -20.75522,-20.75524 L 702.38936,352.14478 574.06613,480.468 544.52984,450.93172 673.05264,322.40892 H 550.11779 c -11.57504,0 -20.75524,-9.37978 -20.75524,-20.75524 0,-11.37547 9.37977,-21.15437 20.9548,-21.15437 h 171.8294 c 5.58795,0 10.77677,2.19526 14.76816,6.18665 4.19095,3.59225 6.58578,8.78107 6.58578,14.56858 v 172.22853 c 0,11.77461 -9.37976,21.15438 -20.95481,21.15438 z M 301.85325,743.50069 c -5.58795,0 -10.77677,-2.19526 -14.76816,-6.18665 -4.39052,-3.59225 -6.58578,-8.78107 -6.58578,-14.56858 V 550.51693 c 0,-11.57504 9.37976,-20.75524 20.75523,-20.75524 11.57503,0 20.75523,9.37977 20.75523,20.75524 l -0.5987,121.73743 128.32323,-128.32323 29.53629,29.53629 -128.5228,128.52281 h 122.93486 c 11.57503,0 20.75522,9.37977 20.75522,20.75523 0,11.37547 -9.37976,20.75523 -20.75522,20.75523 z"
     fill="#111111"
     p-id="74907"
     id="path2"
     style="stroke-width:0.701612" />
</svg>
