<?xml version="1.0" encoding="UTF-8" standalone="no"?>
<svg
   t="1780232288805"
   class="icon"
   viewBox="0 0 1024 1024"
   version="1.1"
   p-id="163776"
   width="128"
   height="128"
   id="svg2"
   sodipodi:docname="category-ugoira-line.svg"
   inkscape:version="1.4.3 (0d15f75, 2025-12-25)"
   xmlns:inkscape="http://www.inkscape.org/namespaces/inkscape"
   xmlns:sodipodi="http://sodipodi.sourceforge.net/DTD/sodipodi-0.dtd"
   xmlns="http://www.w3.org/2000/svg"
   xmlns:svg="http://www.w3.org/2000/svg">
  <defs
     id="defs2" />
  <sodipodi:namedview
     id="namedview2"
     pagecolor="#ffffff"
     bordercolor="#000000"
     borderopacity="0.25"
     inkscape:showpageshadow="2"
     inkscape:pageopacity="0.0"
     inkscape:pagecheckerboard="0"
     inkscape:deskcolor="#d1d1d1"
     inkscape:zoom="8.8828125"
     inkscape:cx="63.943712"
     inkscape:cy="64"
     inkscape:window-width="2560"
     inkscape:window-height="1351"
     inkscape:window-x="-9"
     inkscape:window-y="-9"
     inkscape:window-maximized="1"
     inkscape:current-layer="svg2" />
  <path
     id="path1"
     style="stroke-width:0.777631"
     d="m 422.78516,332.57617 c -3.52833,0.23764 -6.97728,1.22827 -10.52541,1.24206 -5.29218,0.45792 -10.08598,3.96482 -12.41956,8.69424 -2.08377,3.96624 -2.57784,8.54607 -2.38902,12.96409 7.4e-4,105.53667 -0.005,211.07354 0.0212,316.61008 0.16389,5.81253 2.57794,11.83728 7.39447,15.31929 1.41893,1.0656 3.18381,1.59352 4.45242,2.86227 2.69024,2.17371 6.27743,2.72647 9.64232,2.64691 4.1541,0.0842 8.53804,-0.66948 11.87899,-3.30348 3.04139,-2.36563 6.34055,-4.36259 9.51931,-6.53322 76.99528,-51.33083 153.99056,-102.66165 230.98584,-153.99247 3.2006,-3.10718 6.25431,-6.66188 7.43729,-11.06211 1.94969,-6.58623 0.56102,-14.16829 -3.97768,-19.39402 -1.58111,-1.87379 -3.24741,-3.74863 -5.38425,-5.00015 -79.06854,-52.71757 -158.14645,-105.42229 -237.20914,-158.14788 -2.6056,-2.19141 -6.07099,-3.06511 -9.42676,-2.90561 z m 30.35546,67.74414 c 55.2748,36.36516 110.54914,72.73099 165.82422,109.09571 -59.40699,39.86443 -118.81394,79.72896 -178.2207,119.59375 0,-78.94857 0,-157.89714 0,-236.84571 4.13216,2.71875 8.26432,5.4375 12.39648,8.15625 z" />
  <path
     id="path2"
     style="stroke-width:0.777631"
     d="m 734.64258,171.83594 c -150.20219,0.001 -300.40449,-0.005 -450.6066,0.0167 -30.01931,0.34128 -59.94677,8.23306 -86.13245,22.94134 -26.84106,15.01352 -49.75321,36.98684 -65.80596,63.22525 -14.2836,23.265 -23.18211,49.81138 -25.76508,76.99108 -0.78798,8.06121 -0.94183,16.16751 -0.85397,24.26192 0.001,104.75153 -0.006,209.50319 0.0219,314.25463 0.3254,31.4688 8.99515,62.83595 25.0646,89.90873 15.49225,26.22119 37.71145,48.43357 63.98493,63.84689 21.33714,12.53781 45.27386,20.64172 69.85239,23.56514 0.20774,0.0263 1.45168,0.17275 1.68928,0.19622 9.00259,1.02391 18.07373,1.21524 27.12635,1.12018 148.782,-0.001 297.56412,0.006 446.34605,-0.0194 30.66316,-0.26226 61.24449,-8.44295 87.86116,-23.69059 27.77144,-15.83531 51.22193,-39.17283 67.11671,-66.91645 14.12169,-24.54852 22.34082,-52.46479 23.72327,-80.75453 0.44063,-8.34869 0.19792,-16.71076 0.25645,-25.06626 6.9e-4,-101.74984 0.007,-203.49981 -0.0201,-305.24956 -0.32977,-31.31354 -8.90937,-62.52794 -24.8353,-89.5066 -15.41282,-26.25651 -37.57332,-48.51309 -63.79365,-63.99404 -23.95098,-14.17616 -51.21927,-22.71111 -78.98822,-24.64321 -5.40464,-0.38492 -10.82383,-0.53798 -16.24177,-0.48745 z M 286.4707,215.12891 c 150.90258,0.001 301.80531,-0.005 452.70779,0.017 26.51268,0.24361 52.81613,8.68675 74.71119,23.59676 24.43002,16.52582 43.54077,40.87655 53.46304,68.67873 5.53815,15.45054 8.183,31.91396 7.87775,48.31997 -0.002,105.75452 0.007,211.50922 -0.0225,317.26363 -0.27634,26.55652 -8.78801,52.88944 -23.77057,74.78717 -17.05429,25.09022 -42.37813,44.54423 -71.19631,54.13125 -14.65493,4.90304 -30.15217,7.23262 -45.59971,6.94763 -149.938,-8.3e-4 -299.87614,0.005 -449.81404,-0.0188 -26.48148,-0.23885 -52.75304,-8.66569 -74.63399,-23.53929 -24.44377,-16.50878 -43.57192,-40.8477 -53.51446,-68.64414 -5.55828,-15.47712 -8.21664,-31.9721 -7.90939,-48.41025 0.002,-105.75387 -0.007,-211.50792 0.0224,-317.26168 0.2749,-26.65207 8.84899,-53.07898 23.93026,-75.02445 16.69115,-24.44304 41.23127,-43.51471 69.20745,-53.26934 14.28207,-4.9967 29.40743,-7.59395 44.54101,-7.57421 z" />
</svg>
