<?xml version="1.0" encoding="UTF-8" standalone="no"?>
<svg
   t="1780225566945"
   class="icon"
   viewBox="0 0 1024 1024"
   version="1.1"
   p-id="64153"
   width="128"
   height="128"
   id="svg1"
   sodipodi:docname="别名.svg"
   inkscape:version="1.4.3 (0d15f75, 2025-12-25)"
   xmlns:inkscape="http://www.inkscape.org/namespaces/inkscape"
   xmlns:sodipodi="http://sodipodi.sourceforge.net/DTD/sodipodi-0.dtd"
   xmlns="http://www.w3.org/2000/svg"
   xmlns:svg="http://www.w3.org/2000/svg">
  <defs
     id="defs1" />
  <sodipodi:namedview
     id="namedview1"
     pagecolor="#ffffff"
     bordercolor="#000000"
     borderopacity="0.25"
     inkscape:showpageshadow="2"
     inkscape:pageopacity="0.0"
     inkscape:pagecheckerboard="0"
     inkscape:deskcolor="#d1d1d1"
     inkscape:zoom="8.8828125"
     inkscape:cx="63.943712"
     inkscape:cy="64"
     inkscape:window-width="2560"
     inkscape:window-height="1351"
     inkscape:window-x="-9"
     inkscape:window-y="-9"
     inkscape:window-maximized="1"
     inkscape:current-layer="svg1" />
  <path
     id="path1"
     d="m 740.66641,148.35085 c -18.45365,0.14781 -36.86684,2.22086 -54.96796,5.77078 -0.26881,0.0584 -1.0824,0.21833 -1.56038,0.31573 -5.04445,1.01196 -10.06342,2.14918 -15.05667,3.38892 -0.3079,0.075 -1.0709,0.27029 -1.55318,0.39139 -18.85075,4.77632 -37.29668,11.10335 -55.18603,18.71967 -16.74804,7.09564 -33.06974,15.18575 -48.91712,24.11052 -0.3017,0.17574 -0.96025,0.5458 -1.39858,0.79593 -2.8734,1.62935 -5.72633,3.29452 -8.56913,4.97664 -0.31886,0.19448 -0.94793,0.56683 -1.38552,0.82939 -19.94044,11.93403 -39.07427,25.22229 -57.1739,39.79965 -0.2743,0.22773 -0.85735,0.69635 -1.24984,1.01631 -0.71268,0.57724 -1.24116,1.00558 -1.95999,1.59837 -7.61487,6.21195 -14.95253,12.75238 -22.20958,19.37608 -5.36572,4.8569 -10.73144,9.7138 -16.09716,14.57069 3.51357,-10.76005 6.95378,-21.54438 10.51706,-32.28799 3.97867,-11.83332 8.5971,-23.44416 13.64932,-34.85789 2.89578,-7.42796 1.69874,-16.36778 -3.31746,-22.61245 -5.09915,-6.47042 -13.89432,-9.79299 -21.99018,-8.18332 -3.24466,0.62512 -6.22762,2.11208 -9.28532,3.30584 -14.45781,6.03204 -28.61992,13.80899 -41.44855,22.30967 -6.81319,4.51053 -13.42339,9.32494 -19.83025,14.39555 -0.15755,0.12245 -0.86059,0.68956 -1.22884,0.98377 -24.37347,19.55982 -45.74453,42.83342 -63.30631,68.6766 -6.94886,10.22806 -13.25812,20.88767 -18.95074,31.86371 -0.13964,0.26611 -0.50337,0.98302 -0.72893,1.42199 -1.65449,3.24114 -3.24204,6.5162 -4.77236,9.81774 -0.12617,0.26854 -0.46037,1.00385 -0.66633,1.45139 -4.95556,10.87631 -9.2051,22.07496 -12.68623,33.50927 -0.0942,0.30258 -0.3189,1.05744 -0.4631,1.53333 -2.52241,8.59754 -5.02971,17.19955 -7.54629,25.79883 -2.73894,-8.77629 -5.54167,-17.53321 -8.24001,-26.32181 -0.67888,-2.3069 -1.27292,-4.63813 -1.81574,-6.98057 -0.5989,0.0534 -0.37362,-0.94075 -0.61553,-1.34111 -0.8545,-3.38121 -1.4246,-6.90294 -3.17198,-9.97559 -2.82747,-5.25308 -7.74422,-9.45076 -13.55338,-10.98936 -7.42015,-2.07876 -15.81895,0.0338 -21.39263,5.34949 -2.70191,2.49916 -4.47156,5.77042 -6.51079,8.78834 -5.69521,8.84028 -10.93614,17.97123 -15.74955,27.32034 -0.14695,0.2818 -0.50214,0.98374 -0.72887,1.42652 -3.51713,6.90546 -6.79888,13.93014 -9.86406,21.04754 -0.12751,0.29016 -0.43332,1.01594 -0.62914,1.47302 -4.95951,11.66403 -9.3223,23.58003 -13.1115,35.67414 -0.0983,0.30913 -0.32649,1.05516 -0.47454,1.53164 -1.25868,4.06052 -2.43709,8.14526 -3.56788,12.24314 -0.0765,0.29768 -0.28725,1.06644 -0.41521,1.5447 -3.87492,14.37398 -6.94109,28.96604 -9.16982,43.68551 -0.0466,0.29652 -0.1612,1.09258 -0.23387,1.58064 -4.69272,32.05231 -5.45121,64.78226 -1.04076,96.91175 1.07343,7.79608 2.46154,15.549 4.17797,23.22942 0.0569,0.22778 0.24683,1.07565 0.35497,1.5422 5.40065,23.53103 14.05485,46.39743 26.42439,67.16792 0.65439,1.12239 1.30878,2.24477 1.96317,3.36716 -3.88642,5.64348 -7.67794,11.36087 -11.0282,17.343 -12.35457,21.75663 -20.24347,46.01392 -23.15542,70.85895 -2.79601,23.45433 -1.24575,47.32829 3.67321,70.39752 1.71031,6.8109 6.53472,12.82372 12.9748,15.70217 3.83667,1.76236 8.17526,2.29996 12.3437,1.71259 36.28265,-0.006 72.56566,0.0132 108.84809,-0.01 4.62505,-0.0223 8.99193,-3.49328 9.94697,-8.03777 1.03702,-4.41794 -1.25486,-9.25805 -5.18145,-11.45725 -1.92068,-1.1704 -4.21117,-1.46597 -6.42117,-1.3594 -27.96708,0 -55.93418,0 -83.90126,0 -1.3964,-1.33985 -2.79273,-2.67978 -4.18795,-4.02086 -1.85308,-8.54054 -3.30139,-17.17701 -4.04617,-25.88855 -1.79574,-20.25551 -0.0555,-40.93369 6.11244,-60.35761 3.88926,-12.32573 9.55825,-24.09614 16.88497,-34.74924 0.85447,-1.28359 1.70895,-2.56717 2.56343,-3.85076 5.95923,2.33184 11.91644,4.69178 18.05402,6.52242 13.06366,4.00266 26.55237,6.51532 40.1263,7.98179 0.2686,0.0306 1.0983,0.11346 1.5824,0.16413 0.61141,0.0653 0.90422,0.0887 1.55042,0.15086 20.29294,1.9302 40.75685,1.58719 61.04288,-0.25211 0.32301,-0.0339 1.0995,-0.10508 1.59622,-0.15327 0.70487,-0.0662 1.17498,-0.11119 1.90054,-0.18593 27.12944,-2.74055 53.96757,-8.14327 80.15825,-15.70056 22.17577,-6.43043 43.92986,-14.41041 64.79301,-24.32288 7.33013,-3.47573 14.52082,-7.24308 21.57603,-11.2451 5.43497,-2.56061 9.81535,-7.43346 11.39486,-13.27265 2.06257,-7.27755 0.18664,-15.51091 -4.82909,-21.17347 -2.87244,-3.33422 -6.78549,-5.69052 -11.01417,-6.86245 -15.01641,-4.80492 -29.90501,-10.0938 -44.30218,-16.54033 -7.02151,-3.97939 -14.04302,-7.95879 -21.06453,-11.93818 8.13262,-0.69444 16.26342,-1.43749 24.39717,-2.10158 26.72903,0.40773 53.60508,-1.28812 79.7998,-6.83286 22.15602,-4.68301 43.79934,-12.29529 63.46719,-23.60332 16.65967,-9.51717 31.75944,-21.6588 44.98453,-35.53744 2.64261,-2.76195 5.21141,-5.59408 7.72078,-8.47749 0.18602,-0.20972 0.72125,-0.83617 1.0413,-1.20584 4.39695,-5.12453 8.59113,-10.42131 12.6185,-15.8406 0.2002,-0.26606 0.65584,-0.88873 0.95387,-1.29137 16.02709,-21.83097 29.4159,-45.42281 42.87586,-68.8781 13.02954,-22.8979 26.25986,-45.80107 42.32122,-66.74497 13.36287,-17.50822 28.73334,-33.56944 46.24374,-46.9736 18.77321,-14.4486 39.88547,-25.74583 62.08821,-33.94662 8.48498,-3.16377 17.14498,-5.84151 25.87978,-8.21944 3.019,-0.92633 5.94283,-2.26534 8.39575,-4.28222 6.06084,-4.79908 9.37216,-12.85254 8.30656,-20.52573 -0.44428,-3.67632 -2.10085,-7.03344 -3.39938,-10.45721 -8.51586,-21.09067 -20.1944,-41.03986 -35.44683,-57.97914 -13.49323,-15.05734 -29.78293,-27.59356 -47.80002,-36.76942 -21.87652,-11.20307 -46.06444,-17.47932 -70.4751,-19.7762 -8.39347,-0.79963 -16.82904,-1.13537 -25.25957,-1.07319 z m 3.14949,42.23163 c 20.19728,-0.0939 40.58302,3.08462 59.30495,10.84364 15.93508,6.5374 30.45956,16.44475 42.4119,28.84209 7.80037,8.03967 14.51056,17.09187 20.26759,26.69021 1.31922,2.13881 2.63844,4.2776 3.95766,6.41639 -8.40631,3.17422 -16.84436,6.28405 -25.05004,9.95699 -11.5581,5.10232 -22.78988,10.95352 -33.54531,17.58538 -0.25565,0.1544 -0.93759,0.58363 -1.35672,0.84342 -19.46354,12.13606 -37.23001,26.94971 -52.82368,43.76243 -18.19939,19.50619 -33.42778,41.55753 -47.26616,64.30544 -6.89266,11.32055 -13.48025,22.8227 -20.05966,34.32699 -14.69003,25.85218 -29.57383,52.14554 -49.52029,74.48183 -12.03267,13.52813 -25.959,25.43442 -41.52562,34.71863 -17.59057,10.56359 -37.08653,17.7229 -57.09583,22.09367 -23.94782,5.24137 -48.5739,6.7345 -73.03754,6.21614 -18.91437,-0.41486 -37.78206,-2.09168 -56.54168,-4.49402 -4.88621,-0.50276 -10.06705,-0.44008 -14.58207,1.72216 -3.38415,1.60353 -5.85825,4.70511 -7.15715,8.16905 -2.12665,5.61476 -2.19471,11.77156 -1.59397,17.6745 0.87697,7.79028 3.00541,15.45883 6.37949,22.53972 5.77532,11.74275 14.70705,21.63794 24.5927,30.08276 6.84558,5.84681 14.26432,10.98056 21.88747,15.75379 3.76713,2.4096 7.53426,4.81919 11.30139,7.2288 -11.95643,3.58621 -23.86432,7.34771 -35.93982,10.52107 -22.99324,6.08705 -46.3348,10.97332 -69.94739,13.9184 -16.98079,2.07954 -34.13805,3.17809 -51.23839,2.20715 -13.46455,-0.81095 -26.99374,-2.88992 -39.63798,-7.74068 -9.65145,-3.69978 -18.74518,-9.23266 -25.73057,-16.92772 -0.79978,-0.89317 -1.24417,-2.05107 -1.87924,-3.06513 -13.26134,-23.65646 -20.60686,-50.28771 -23.51955,-77.15473 -2.86676,-26.31176 -1.68838,-52.96513 2.30541,-79.09575 3.88362,-25.29564 10.44165,-50.16895 19.37428,-74.14778 1.70298,-4.67606 3.40596,-9.35212 5.10895,-14.02818 3.65293,6.85093 7.19399,13.76217 10.9343,20.56605 10.72178,19.16781 23.82594,36.83777 35.99792,55.07997 3.69655,5.49649 9.89971,9.24784 16.51758,9.80059 5.65629,0.55698 11.43234,-1.24799 15.9019,-4.72647 4.81049,-3.60499 7.97103,-9.29669 8.45336,-15.29188 0.35657,-3.44582 -0.24974,-6.90227 -1.22327,-10.20144 -5.67531,-21.71681 -6.07617,-44.62054 -2.40332,-66.70631 4.21861,-25.50061 13.58879,-49.97416 26.13571,-72.50698 14.52465,-25.84647 33.33396,-49.20756 55.01533,-69.39686 5.84269,-5.50206 11.68539,-11.00412 17.52808,-16.50618 -2.73273,11.42301 -5.55681,22.82441 -8.22138,34.26357 -5.39695,23.85308 -9.47526,48.01436 -11.98375,72.34431 -0.50725,5.22905 -1.03785,10.46303 -1.26803,15.7118 0.1138,7.80536 4.54314,15.33407 11.22832,19.33358 5.61552,3.46805 12.829,4.16561 18.99683,1.80955 6.6759,-2.47364 11.86658,-8.2308 14.15327,-14.9156 5.8352,-13.1923 13.78274,-25.34351 22.53005,-36.77313 12.54863,-16.30649 26.87901,-31.17751 42.08021,-45.01846 20.57513,-18.67297 42.83823,-35.46234 66.26782,-50.38675 25.16654,-15.98536 51.73578,-29.85403 79.56529,-40.59865 23.14461,-8.89284 47.22452,-15.65362 71.88273,-18.60893 7.98657,-0.94988 16.02416,-1.48419 24.06792,-1.51844 z M 403.79433,854.5781 c -5.41575,0.24593 -10.14367,5.17271 -10.09348,10.60732 -0.0561,4.3807 3.15376,8.3927 7.26867,9.69565 2.47962,0.85327 5.1357,0.45067 7.70302,0.54515 102.3033,-0.003 204.60675,0.006 306.90995,-0.005 4.16438,0.0456 8.35684,-2.38469 10.01637,-6.26984 1.76313,-3.91911 0.59051,-8.81553 -2.58216,-11.66443 -2.21513,-2.10699 -5.32707,-3.08997 -8.35403,-2.92537 -103.46847,0.003 -206.93709,-0.006 -310.40547,0.005 -0.15429,0.004 -0.30858,0.007 -0.46287,0.0116 z"
     style="stroke-width:0.919876" />
</svg>
