<?xml version="1.0" encoding="UTF-8" standalone="no"?>
<svg
   t="1780228071544"
   class="icon"
   viewBox="0 0 1024 1024"
   version="1.1"
   p-id="115465"
   width="128"
   height="128"
   id="svg1"
   sodipodi:docname="category-language-line.svg"
   inkscape:version="1.4.3 (0d15f75, 2025-12-25)"
   xmlns:inkscape="http://www.inkscape.org/namespaces/inkscape"
   xmlns:sodipodi="http://sodipodi.sourceforge.net/DTD/sodipodi-0.dtd"
   xmlns="http://www.w3.org/2000/svg"
   xmlns:svg="http://www.w3.org/2000/svg">
  <defs
     id="defs1" />
  <sodipodi:namedview
     id="namedview1"
     pagecolor="#ffffff"
     bordercolor="#000000"
     borderopacity="0.25"
     inkscape:showpageshadow="2"
     inkscape:pageopacity="0.0"
     inkscape:pagecheckerboard="0"
     inkscape:deskcolor="#d1d1d1"
     inkscape:zoom="8.8828125"
     inkscape:cx="63.943712"
     inkscape:cy="64"
     inkscape:window-width="2560"
     inkscape:window-height="1351"
     inkscape:window-x="-9"
     inkscape:window-y="-9"
     inkscape:window-maximized="1"
     inkscape:current-layer="svg1" />
  <path
     id="path1"
     style="stroke-width:0;stroke-dasharray:none"
     d="m 321.17674,226.83309 c 9.97488,19.96207 19.94866,39.92468 29.92442,59.88631 -71.19276,0 -142.38552,0 -213.57828,0 0,18.53109 0,37.06217 0,55.59324 25.84967,0 51.69934,0 77.549,0 2.25713,7.23455 4.57232,14.45456 7.24911,21.54687 2.39314,6.43111 4.99458,12.78357 7.75139,19.06706 0.0995,0.23001 0.40685,0.91495 0.58615,1.31963 6.16985,13.88957 13.15822,27.40723 20.72281,40.58629 0.14902,0.25031 0.50245,0.86646 0.72978,1.25693 3.22959,5.58615 6.5712,11.10719 10.00208,16.57195 0.16398,0.26516 0.53572,0.84632 0.77924,1.23247 2.24272,3.55292 4.53213,7.07616 6.8489,10.58121 0.18324,0.26892 0.55618,0.833 0.81203,1.21491 2.35173,3.53175 4.74623,7.03491 7.16804,10.51894 0.19283,0.26951 0.57532,0.81988 0.84075,1.1969 3.82784,5.46981 7.74634,10.87588 11.73705,16.22793 0.22034,0.30008 0.63392,0.84594 0.92827,1.24016 9.11482,12.15888 18.62987,24.01575 28.46339,35.60042 0.34306,0.40689 0.86601,1.01589 1.2781,1.50033 4.99653,5.87778 10.12486,11.64122 15.23107,17.4234 -7.36049,6.12275 -14.73936,12.22688 -22.33673,18.05522 -32.82183,25.32096 -68.21012,47.26312 -105.22854,65.89426 -25.962,13.04056 -52.7508,24.45222 -80.20962,33.95277 5.8653,17.58557 11.7306,35.17114 17.59589,52.75671 38.53992,-13.30533 75.88213,-30.03133 111.61661,-49.65136 0.28346,-0.16137 0.87609,-0.48549 1.27789,-0.70916 8.19148,-4.52177 16.2934,-9.20538 24.30295,-14.04207 0.32228,-0.19182 0.90361,-0.5486 1.3251,-0.80359 0.76828,-0.46693 1.53657,-0.93386 2.30487,-1.40079 0.26463,-0.16765 0.85233,-0.5261 1.24066,-0.7668 0.75797,-0.46586 1.68768,-1.04334 2.34043,-1.44082 28.2886,-17.55484 55.36438,-37.08935 80.7342,-58.65658 1.19152,-1.00187 2.38304,-2.00375 3.57456,-3.00562 8.51773,8.22907 17.07843,16.4157 25.84751,24.37763 12.48981,11.39337 25.28192,22.45448 38.33839,33.19352 0.24321,0.19204 0.7765,0.63272 1.13077,0.91996 26.04729,21.32119 53.17872,41.34306 81.48439,59.56979 4.36393,2.80356 8.75286,5.56822 13.17491,8.27923 8.23586,-16.71547 16.28076,-33.52437 24.34588,-50.32262 -28.53149,-17.86257 -55.76504,-37.75235 -81.86956,-58.99132 -20.2204,-16.47137 -39.73064,-33.81079 -58.505,-51.91225 -1.19802,-1.14572 -2.39603,-2.29143 -3.59405,-3.43714 3.02858,-3.28815 6.07869,-6.55654 9.08144,-9.86837 0.21239,-0.23185 0.67021,-0.74435 0.97657,-1.08366 1.19808,-1.32362 2.37993,-2.66175 3.56577,-3.99633 0.19789,-0.23214 0.65982,-0.7536 0.95882,-1.09653 30.67208,-34.94998 56.6939,-74.24944 74.87878,-117.13085 7.86661,-18.51934 14.24132,-37.67655 18.94724,-57.24113 0.049,-0.19875 0.22911,-0.97403 0.32867,-1.39494 0.55841,-2.37752 1.11686,-4.75504 1.6753,-7.13256 25.35384,0 50.70767,0 76.0615,0 0,-18.53107 0,-37.06215 0,-55.59324 -62.76465,0 -125.5293,0 -188.29396,0 -14.11787,-28.24744 -28.23599,-56.49475 -42.35396,-84.74214 -16.58033,8.28528 -33.16065,16.57056 -49.74098,24.85583 z m -37.81813,115.47955 c 61.72084,0 123.44169,0 185.16254,0 -2.38244,8.11034 -4.67865,16.25176 -7.49418,24.22594 -12.69109,36.57182 -32.2185,70.54775 -55.88376,101.09684 -8.09767,10.48541 -16.72638,20.55214 -25.69199,30.30316 -0.96706,1.06442 -1.93412,2.12886 -2.90118,3.19328 -7.60577,-8.66709 -15.20126,-17.34672 -22.48804,-26.28565 -19.32042,-23.58257 -37.24645,-48.37077 -52.68064,-74.68218 -9.51221,-16.24251 -18.02998,-33.092 -24.98945,-50.59042 -0.98622,-2.42032 -1.97246,-4.84064 -2.95869,-7.26097 3.30846,0 6.61692,0 9.92539,0 z m 229.28098,495.96791 c 21.61634,0 43.23267,0 64.84901,0 16.31252,-35.3542 32.62557,-70.70815 48.93775,-106.06249 49.76759,0 99.53519,0 149.30278,0 16.32639,35.35355 32.64993,70.70842 48.97522,106.06249 21.61635,0 43.23268,0 64.84901,0 C 838.5747,727.80442 787.59604,617.32828 736.61737,506.85215 c -23.68059,0 -47.36119,0 -71.04179,0 -50.97866,110.47613 -101.95733,220.95227 -152.93599,331.4284 z M 707.15566,583.58653 c 14.30537,31.0008 28.61056,62.00169 42.91605,93.00244 -32.64961,0 -65.29922,0 -97.94884,0 16.32493,-35.37789 32.64933,-70.75601 48.97361,-106.13419 2.01972,4.37725 4.03945,8.75451 6.05918,13.13175 z" />
</svg>
