<?xml version="1.0" encoding="UTF-8" standalone="no"?>
<svg
   class="icon"
   viewBox="0 0 1024 1024"
   version="1.1"
   width="128"
   height="128"
   id="svg1"
   sodipodi:docname="close_cancel.svg"
   inkscape:version="1.4.3 (0d15f75, 2025-12-25)"
   xmlns:inkscape="http://www.inkscape.org/namespaces/inkscape"
   xmlns:sodipodi="http://sodipodi.sourceforge.net/DTD/sodipodi-0.dtd"
   xmlns="http://www.w3.org/2000/svg"
   xmlns:svg="http://www.w3.org/2000/svg">
  <defs
     id="defs1" />
  <sodipodi:namedview
     id="namedview1"
     pagecolor="#ffffff"
     bordercolor="#000000"
     borderopacity="0.25"
     inkscape:showpageshadow="2"
     inkscape:pageopacity="0.0"
     inkscape:pagecheckerboard="0"
     inkscape:deskcolor="#d1d1d1"
     inkscape:zoom="8.8828125"
     inkscape:cx="63.943712"
     inkscape:cy="64"
     inkscape:window-width="2560"
     inkscape:window-height="1351"
     inkscape:window-x="-9"
     inkscape:window-y="-9"
     inkscape:window-maximized="1"
     inkscape:current-layer="svg1" />
  <path
     id="path1"
     style="stroke-width:1.04286"
     d="m 193.26698,163.75507 c -8.12989,0.16694 -16.17981,3.67585 -21.65008,9.72676 -6.08111,6.57395 -8.81948,15.94476 -7.58901,24.7793 0.88003,6.77536 4.1186,13.21599 9.083,17.91842 98.59193,98.59251 197.18381,197.18506 295.77577,295.77754 -97.33799,98.99508 -194.6871,197.97931 -292.02103,296.97834 -6.02526,6.26397 -8.95711,15.2297 -8.13726,23.84928 0.67534,7.91334 4.55985,15.53036 10.7241,20.56939 7.24484,6.05199 17.38743,8.25395 26.53939,6.09165 5.8045,-1.3126 11.16227,-4.41696 15.23503,-8.75069 96.92397,-96.92456 193.85035,-193.84672 290.7728,-290.7728 97.05095,97.05457 194.10581,194.10522 291.15827,291.15827 7.02305,5.15485 15.42769,8.72969 24.19888,9.14373 5.35659,0.22826 11.04865,-0.83971 15.30342,-4.28906 1.44917,-1.1258 2.54353,-2.61352 3.59561,-4.09225 5.2875,-5.09923 8.53153,-12.195 9.05162,-19.51167 0.70174,-8.66066 -2.38924,-17.6185 -8.55604,-23.78791 -97.20976,-98.86513 -194.42763,-197.72241 -291.63872,-296.58628 98.65591,-98.65643 197.31174,-197.31294 295.96762,-295.9694 5.15482,-7.02315 8.72966,-15.42766 9.14373,-24.19888 0.22868,-5.35702 -0.83956,-11.04822 -4.28906,-15.30342 -1.12581,-1.44916 -2.61352,-2.54353 -4.09225,-3.5956 -5.09057,-5.2783 -12.17088,-8.52076 -19.4743,-9.04901 -8.64228,-0.71061 -17.58361,2.35596 -23.76082,8.48881 C 709.73253,271.19097 610.86822,370.06336 511.99969,468.93141 413.13355,370.0656 314.27135,271.19575 215.3988,172.33644 c -5.79677,-5.74992 -13.99842,-8.81333 -22.13182,-8.58137 z" />
</svg>
