<?xml version="1.0" encoding="UTF-8" standalone="no"?>
<svg
   class="icon"
   viewBox="0 0 1024 1024"
   version="1.1"
   width="128"
   height="128"
   id="svg2"
   sodipodi:docname="download.svg"
   inkscape:version="1.4.3 (0d15f75, 2025-12-25)"
   xmlns:inkscape="http://www.inkscape.org/namespaces/inkscape"
   xmlns:sodipodi="http://sodipodi.sourceforge.net/DTD/sodipodi-0.dtd"
   xmlns="http://www.w3.org/2000/svg"
   xmlns:svg="http://www.w3.org/2000/svg">
  <defs
     id="defs2" />
  <sodipodi:namedview
     id="namedview2"
     pagecolor="#ffffff"
     bordercolor="#000000"
     borderopacity="0.25"
     inkscape:showpageshadow="2"
     inkscape:pageopacity="0.0"
     inkscape:pagecheckerboard="0"
     inkscape:deskcolor="#d1d1d1"
     inkscape:zoom="8.8828125"
     inkscape:cx="63.943712"
     inkscape:cy="64"
     inkscape:window-width="2560"
     inkscape:window-height="1351"
     inkscape:window-x="-9"
     inkscape:window-y="-9"
     inkscape:window-maximized="1"
     inkscape:current-layer="svg2" />
  <path
     id="path1"
     style="stroke-width:0.871341"
     d="m 511.11523,121.67578 c -8.303,0.22388 -16.38936,4.40194 -21.35217,11.06536 -3.71844,4.88073 -5.69167,11.01417 -5.63914,17.14142 -0.0156,64.22997 -0.002,128.46092 -0.007,192.69127 0,99.13685 0,198.2737 0,297.41055 -37.17815,-37.18254 -74.35956,-74.3618 -111.53907,-111.54297 -3.66955,-2.83669 -8.01233,-4.8049 -12.59371,-5.5683 -7.76609,-1.35673 -16.04834,0.80711 -22.16013,5.78608 -6.47428,5.1613 -10.39545,13.33761 -10.36607,21.61693 -0.0271,6.41973 2.23464,12.85754 6.3727,17.77427 52.89309,53.07077 105.77595,106.15202 158.67543,159.21625 5.62267,5.52548 13.65437,8.4887 21.51938,7.86518 6.73121,-0.45733 13.21491,-3.50235 17.92901,-8.31923 C 584.79715,673.79712 637.63,620.76996 690.46875,567.75 c 2.96898,-4.04493 4.89728,-8.85643 5.39613,-13.85755 0.81886,-7.67238 -1.73756,-15.62357 -6.89159,-21.36848 -5.37616,-6.10121 -13.52454,-9.63682 -21.65628,-9.33713 -5.79642,0.16519 -11.54666,2.18288 -16.1238,5.74931 -15.77181,15.80413 -31.57537,31.57947 -47.3589,47.37304 -21.31714,21.31818 -42.63563,42.63502 -63.9515,63.95448 -0.003,-163.66154 0.002,-327.32327 -0.008,-490.9847 -0.0687,-6.94777 -2.81049,-13.83591 -7.61097,-18.86915 -5.3759,-5.76671 -13.27402,-9.01217 -21.149,-8.73404 z" />
  <path
     id="path2"
     style="stroke-width:0.871341"
     d="m 148.63672,512.0293 c -8.417,0.22643 -16.61028,4.51945 -21.55469,11.33984 -3.57462,4.8105 -5.47645,10.80049 -5.43524,16.78717 -0.022,74.41824 -0.004,148.83726 -3.1e-4,223.2558 0.0751,12.87798 1.8926,25.74507 5.45844,38.12194 5.75692,20.01244 16.06501,38.69934 29.94868,54.22208 14.97687,16.82307 34.11102,29.9054 55.21712,37.76814 15.47256,5.78959 31.97947,8.77673 48.49833,8.82006 13.36335,0.0398 26.72717,0.005 40.09072,0.0168 154.21702,-0.005 308.43417,0.005 462.65112,-0.009 15.61574,-0.0918 31.21676,-2.77834 45.93729,-7.9989 18.94737,-6.68585 36.3992,-17.54641 50.78223,-31.57467 15.40211,-14.99366 27.26749,-33.59799 34.32136,-53.90549 5.13825,-14.66131 7.74892,-30.18895 7.79835,-45.72106 0.0255,-43.14079 0.005,-86.2818 0.0103,-129.42267 -0.009,-31.45366 0.009,-62.90778 -0.0171,-94.36116 -0.11986,-8.3381 -4.21769,-16.51321 -10.86449,-21.55742 -6.67055,-5.21574 -15.79293,-7.0719 -23.97575,-4.9046 -7.64658,1.9312 -14.32376,7.29999 -17.86287,14.34725 -2.0976,4.06959 -3.08409,8.66018 -3.04066,13.22812 -0.0102,74.29496 0.003,148.59086 -0.0156,222.88607 -0.0895,14.2453 -3.84561,28.45713 -10.90142,40.83909 -8.21897,14.55591 -20.93163,26.51882 -35.95844,33.8419 -11.35166,5.57914 -23.99151,8.50836 -36.63927,8.52262 -9.85846,0.0587 -19.71752,0.006 -29.57625,0.0245 -157.62223,-0.003 -315.24462,0.006 -472.86676,-0.0115 -14.28494,-0.0852 -28.53523,-3.8646 -40.94291,-10.95358 -14.51543,-8.22135 -26.44263,-20.91478 -33.75098,-35.91061 -5.59241,-11.38097 -8.51909,-24.05561 -8.52045,-36.73516 -0.0569,-10.85847 -0.005,-21.71754 -0.0232,-32.57626 -0.003,-63.65136 0.007,-127.30301 -0.0144,-190.95418 -0.10037,-7.76788 -3.61887,-15.40946 -9.4806,-20.51166 -5.25129,-4.63361 -12.27303,-7.15395 -19.27256,-6.91345 z" />
</svg>
