<?xml version="1.0" encoding="UTF-8" standalone="no"?>
<svg
   t="1779612644609"
   class="icon"
   viewBox="0 0 1024 1024"
   version="1.1"
   p-id="25112"
   width="128"
   height="128"
   id="svg1"
   sodipodi:docname="home-line.svg"
   inkscape:version="1.4.3 (0d15f75, 2025-12-25)"
   xmlns:inkscape="http://www.inkscape.org/namespaces/inkscape"
   xmlns:sodipodi="http://sodipodi.sourceforge.net/DTD/sodipodi-0.dtd"
   xmlns="http://www.w3.org/2000/svg"
   xmlns:svg="http://www.w3.org/2000/svg">
  <defs
     id="defs1" />
  <sodipodi:namedview
     id="namedview1"
     pagecolor="#ffffff"
     bordercolor="#000000"
     borderopacity="0.25"
     inkscape:showpageshadow="2"
     inkscape:pageopacity="0.0"
     inkscape:pagecheckerboard="0"
     inkscape:deskcolor="#d1d1d1"
     inkscape:zoom="8.8828125"
     inkscape:cx="63.943712"
     inkscape:cy="64"
     inkscape:window-width="2560"
     inkscape:window-height="1351"
     inkscape:window-x="-9"
     inkscape:window-y="-9"
     inkscape:window-maximized="1"
     inkscape:current-layer="svg1"
     showguides="true">
    <sodipodi:guide
       position="220.65084,28.819701"
       orientation="1,0"
       id="guide1"
       inkscape:locked="false" />
    <sodipodi:guide
       position="803.34916,-18.012313"
       orientation="1,0"
       id="guide2"
       inkscape:locked="false" />
  </sodipodi:namedview>
  <path
     d="M 887.32229,492.76536 547.32834,130.3704 c -19.19508,-20.48631 -51.70828,-20.48631 -70.90336,0 L 136.47081,492.76536 c -13.29767,14.12333 -16.9191,34.8035 -9.21199,52.6051 7.7071,17.8016 25.26533,29.31215 44.66367,29.27992 h 48.26363 v 244.02375 c 9.95061,56.94383 -27.20357,93.65794 72.96979,91.0219 l 149.40893,-0.90062 V 666.64173 c 0.0219,-9.13239 7.41969,-16.53021 16.55208,-16.55208 H 564.6364 c 9.13238,0.0219 16.5302,7.4197 16.55207,16.55208 v 242.35262 l 187.23479,-1.80123 c 49.73889,-0.0658 31.49764,-35.87929 35.14394,-88.32005 V 574.65038 h 48.26362 c 19.38802,0.0113 36.92975,-11.49674 44.64002,-29.2857 7.71028,-17.78896 4.11527,-38.45837 -9.14855,-52.59932 z m -141.44862,24.19149 v 301.71728 c 1e-5,17.89382 -14.49415,32.40579 -32.38796,32.42774 h -74.6037 V 666.64173 C 636.1363,595.93488 605.62294,592.43998 564.6364,592.39612 H 459.11692 c -40.98654,0.0439 -72.40052,2.63814 -74.24561,74.24561 v 184.65909 h -74.6037 c -17.89381,-0.022 -32.38798,-14.53392 -32.38796,-32.42775 V 516.95685 H 192.85132 L 511.87666,176.88332 830.902,516.95685 Z"
     fill="#111111"
     p-id="25113"
     id="path1"
     style="stroke-width:0.776;stroke-dasharray:none"
     sodipodi:nodetypes="ccccsccccccccccccccsccscccccccccccccc" />
</svg>
