<?xml version="1.0" encoding="UTF-8" standalone="no"?>
<svg
   t="1779872156737"
   class="icon"
   viewBox="0 0 1024 1024"
   version="1.1"
   p-id="20017"
   width="128"
   height="128"
   id="svg1"
   sodipodi:docname="reset.svg"
   inkscape:version="1.4.3 (0d15f75, 2025-12-25)"
   xmlns:inkscape="http://www.inkscape.org/namespaces/inkscape"
   xmlns:sodipodi="http://sodipodi.sourceforge.net/DTD/sodipodi-0.dtd"
   xmlns="http://www.w3.org/2000/svg"
   xmlns:svg="http://www.w3.org/2000/svg">
  <defs
     id="defs1" />
  <sodipodi:namedview
     id="namedview1"
     pagecolor="#ffffff"
     bordercolor="#000000"
     borderopacity="0.25"
     inkscape:showpageshadow="2"
     inkscape:pageopacity="0.0"
     inkscape:pagecheckerboard="0"
     inkscape:deskcolor="#d1d1d1"
     inkscape:zoom="8.8828125"
     inkscape:cx="63.943712"
     inkscape:cy="64"
     inkscape:window-width="2560"
     inkscape:window-height="1351"
     inkscape:window-x="-9"
     inkscape:window-y="-9"
     inkscape:window-maximized="1"
     inkscape:current-layer="svg1" />
  <path
     d="M 813.90395,533.90775 A 302.32629,302.32629 0 0 1 730.95992,717.44055 304.04048,304.04048 0 0 1 550.90122,808.56699 304.49761,304.49761 0 0 1 353.32348,766.99212 302.96626,302.96626 0 0 1 225.55904,611.11495 301.8806,301.8806 0 0 1 224.1077,409.8117 302.92055,302.92055 0 0 1 349.58654,252.09462 304.47474,304.47474 0 0 1 727.90866,296.19506 h -94.54339 c -8.03385,0 -15.73628,3.17697 -21.41597,8.84523 a 30.135491,30.135491 0 0 0 0,42.68338 c 5.67969,5.65684 13.37069,8.84523 21.41597,8.84523 h 125.44455 a 56.33977,56.33977 0 0 0 39.75783,-16.43339 55.996932,55.996932 0 0 0 16.47909,-39.62068 V 175.4474 c 0,-7.99957 -3.19982,-15.67915 -8.86808,-21.3474 a 30.329767,30.329767 0 0 0 -42.83194,0 30.135491,30.135491 0 0 0 -8.86808,21.3474 v 62.73941 a 363.50008,363.50008 0 0 0 -219.90796,-91.36642 363.7515,363.7515 0 0 0 -229.35886,64.2822 361.8316,361.8316 0 0 0 -139.93518,192.20661 360.72309,360.72309 0 0 0 9.77089,237.28985 362.09444,362.09444 0 0 0 155.27149,180.13871 363.86577,363.86577 0 0 0 233.86147,45.32322 363.29438,363.29438 0 0 0 211.66841,-108.99974 361.27164,361.27164 0 0 0 98.25747,-216.36529 30.318339,30.318339 0 0 0 -17.99902,-30.58118 30.558326,30.558326 0 0 0 -12.28504,-2.62843 29.792653,29.792653 0 0 0 -20.0789,7.46245 29.609806,29.609806 0 0 0 -9.83946,18.97039 z"
     p-id="20018"
     fill="#111111"
     id="path1"
     style="stroke-width:0.848168" />
</svg>
