<?xml version="1.0" encoding="UTF-8" standalone="no"?>
<svg
   class="icon"
   viewBox="0 0 1024 1024"
   version="1.1"
   width="128"
   height="128"
   id="svg2"
   sodipodi:docname="zoom.svg"
   inkscape:version="1.4.3 (0d15f75, 2025-12-25)"
   xmlns:inkscape="http://www.inkscape.org/namespaces/inkscape"
   xmlns:sodipodi="http://sodipodi.sourceforge.net/DTD/sodipodi-0.dtd"
   xmlns="http://www.w3.org/2000/svg"
   xmlns:svg="http://www.w3.org/2000/svg">
  <defs
     id="defs2" />
  <sodipodi:namedview
     id="namedview2"
     pagecolor="#ffffff"
     bordercolor="#000000"
     borderopacity="0.25"
     inkscape:showpageshadow="2"
     inkscape:pageopacity="0.0"
     inkscape:pagecheckerboard="0"
     inkscape:deskcolor="#d1d1d1"
     inkscape:zoom="8.8828125"
     inkscape:cx="63.943712"
     inkscape:cy="64"
     inkscape:window-width="2560"
     inkscape:window-height="1351"
     inkscape:window-x="-9"
     inkscape:window-y="-9"
     inkscape:window-maximized="1"
     inkscape:current-layer="svg2" />
  <path
     d="M 964.86402,868.69401 C 912.76324,816.58044 860.64807,764.46686 808.53129,712.35169 937.58266,541.1961 912.22734,299.35436 750.45722,158.68914 588.6887,18.025514 345.67118,26.500751 194.08638,178.08555 42.498371,329.65757 34.037534,572.68468 174.68836,734.43721 c 140.66682,161.76852 382.51175,187.13983 553.68174,58.07567 52.11518,52.11518 104.21436,104.22875 156.34394,156.34233 22.1303,22.13031 58.01647,22.13031 80.14839,0 22.14627,-22.13032 22.14627,-58.03089 10e-4,-80.1612 z M 482.66508,806.74385 c -187.83411,0 -340.10039,-152.26308 -340.10039,-340.08279 0,-187.83091 152.26628,-340.09719 340.10039,-340.09719 187.83411,0 340.10039,152.26628 340.1004,340.09719 0,187.81971 -152.26629,340.08279 -340.1004,340.08279 z"
     id="path1"
     style="stroke-width:0.885665" />
  <path
     d="m 335.2875,500.66598 h 113.37106 v 113.37105 c 0,24.04038 9.96616,34.00654 34.00652,34.00654 24.05315,0 34.00652,-9.96616 34.00652,-34.00654 V 500.66598 h 113.37106 c 24.03876,0 34.00652,-9.96616 34.00652,-34.00492 0,-24.05316 -9.96616,-34.01932 -34.00652,-34.01932 H 516.6716 V 319.28668 c 0,-24.05476 -9.95337,-34.00492 -34.00652,-34.00492 -24.03876,0 -34.00652,9.95176 -34.00652,34.00492 V 432.64174 H 335.2875 c -24.03877,0 -34.00652,9.96616 -34.00652,34.01932 0,24.03876 9.96615,34.00492 34.00652,34.00492 z"
     id="path2"
     style="stroke-width:0.885665" />
</svg>
